<?xml version="1.0" standalone="yes"?>
<svg xmlns="http://www.w3.org/2000/svg" width="512" height="512">
<path style="fill:#010101; stroke:none;" d="M0 0L0 240L1 240C1.02249 206.044 14.0554 169.242 30.5756 140C48.4794 108.309 71.755 79.8307 101 57.8951C194.961 -12.5815 328.04 -10.9067 419 64.25C444.165 85.0427 464.976 110.53 480.86 139C497.452 168.738 510.977 205.508 511 240L512 240L512 0L0 0z"/>
<path style="fill:#ffffff; stroke:none;" d="M193 445C166.387 446.143 135.353 451.927 115.301 428.985C105.205 417.435 101.638 401.312 92.2508 389C85.1302 379.661 73.6839 375.534 68 365C98.4287 353.907 111.746 387.12 129.09 403.826C140.474 414.792 153.93 417.297 169 416.086C175.93 415.529 187.031 415.102 192.411 410.005C195.724 406.868 195.81 399.212 197.428 395C200.372 387.339 205.448 381.658 210 375C189.769 370.128 169.898 369.07 151 359.111C105.857 335.321 86.6871 282.227 94.439 233C96.3749 220.707 100.521 208.72 106.865 198C110.13 192.484 116.556 187.15 118.371 181C119.835 176.04 116.119 168.991 115.25 164C113.054 151.386 114.283 139.365 117.375 127C118.465 122.642 119.417 116.499 123.225 113.603C128.295 109.748 137.697 113.267 143 115.079C154.436 118.985 165.364 124.094 176 129.781C181.014 132.462 186.301 137.518 192 138.492C200.139 139.882 211.768 134.546 220 133.275C237.427 130.584 255.435 129.887 273 131.09C283.695 131.822 294.517 133.392 305 135.662C309.87 136.716 316.016 139.66 321 138.262C341.845 132.414 361.063 108.654 384.995 112.152C391.762 113.141 392.887 121.543 394.421 127C397.254 137.086 399.068 148.55 397.572 159C396.669 165.305 391.47 176.089 394.003 182C396.344 187.463 401.44 191.916 404.536 197C411.063 207.716 415.219 219.684 417.385 232C424.837 274.374 410.636 327.942 373 351.946C350.234 366.466 327.424 368.877 302 375C306.968 382.267 312.306 388.537 315.301 397C322.75 418.049 319 444.007 319 466C319 476.508 314.653 498.958 326.015 504.821C336.539 510.251 354.603 499.793 364 495.258C398.242 478.734 429.099 456.796 453.195 427C529.759 332.326 532.536 194.153 454.576 99C433.318 73.0539 407.235 52.3542 378 36.1389C352.813 22.1689 325.346 13.5712 297 8.91974C181.297 -10.0666 62.8725 54.882 18.4522 164C5.06929 196.875 0 230.716 0 266C0 293.85 4.32341 321.676 13.6921 348C34.4722 406.387 76.1978 455.695 130 486.281C143.007 493.675 156.869 499.646 171 504.561C176.64 506.523 184.903 507.345 189.442 502.606C193.898 497.953 193 490.897 193 485L193 445z"/>
<path style="fill:#010101; stroke:none;" d="M210 375C204.082 381.188 199.516 387.868 196.696 396C194.914 401.138 195.282 408.249 189.941 411.084C170.087 421.626 142.182 417.94 127.3 400.985C113.19 384.91 95.069 351.956 68 365C72.1762 376.292 85.1521 380.679 92.2508 390C101.598 402.274 105.123 418.561 115.301 429.961C134.755 451.75 167.259 447.031 193 445L193 484C193 490.087 193.769 496.846 189.442 501.786C181.9 510.398 169.466 503.62 161 500.424C136.331 491.111 113.33 477.121 93 460.385C43.4002 419.553 1.18255 351.157 1 285L0 285L0 512L512 512L512 285L511 285C510.793 360.03 458.328 435.797 398 476C382.071 486.615 364.923 495.268 347 501.95C340.646 504.319 332.533 508.415 326.015 504.258C314.675 497.025 319 475.478 319 464C319 433.797 324.72 398.756 302 375C328.943 369.98 353.858 366.069 377 349.961C412.51 325.244 423.997 272.874 417.561 232C415.57 219.357 411.206 206.951 404.536 196C401.502 191.017 396.123 186.46 394.082 181C392.088 175.666 396.758 165.685 397.572 160C399.106 149.285 397.577 137.377 394.705 127C393.282 121.858 392.33 113.164 385.981 112.148C368.961 109.423 348.162 122.516 334 130.312C329.563 132.754 325.018 137.029 320 138.127C313.555 139.538 303.489 135.248 297 134C283.758 131.453 269.461 130.179 256 130.179C242.539 130.179 228.242 131.453 215 134C208.511 135.248 198.445 139.538 192 138.127C186.662 136.959 181.766 132.329 177 129.781C165.838 123.812 154.174 118.081 142 114.438C136.837 112.894 127.169 109.619 122.419 113.603C118.954 116.51 118.143 122.847 117.13 127C114.141 139.243 112.977 151.517 115.081 164C115.864 168.648 119.247 175.415 118.227 180C116.883 186.037 110.007 191.691 106.865 197C100.521 207.72 96.3749 219.707 94.439 232C87.8387 273.915 100.197 326.804 137 351.481C159.649 366.667 183.925 370.142 210 375z"/>
</svg>
