<?xml version="1.0" standalone="yes"?>
<svg xmlns="http://www.w3.org/2000/svg" width="1224" height="792">
<path style="fill:#010101; stroke:none;" d="M0 0L0 792L1224 792L1224 0L0 0z"/>
<path style="fill:#fefefe; stroke:none;" d="M525 80C529.243 97.8231 526 119.689 526 138C551.246 134.812 578.4 137 604 137C645.271 137 686.875 136.094 728 138.911C762.409 141.267 796.68 143.151 825 165.666C856.697 190.866 863.477 225.32 868.424 263C871.286 284.792 869.079 307.078 870.039 329C872.699 389.745 871.697 451.307 869.039 512C867.187 554.307 861.178 595.447 827 624.7C799.255 648.447 762.766 651.517 728 653.039C684.722 654.934 641.391 655 598 655C574.355 655 549.309 656.943 526 654C526 672.311 529.243 694.177 525 712C592.496 712 660.605 715.705 728 711.089C774.017 707.938 818.294 704.23 857 675.845C889.984 651.656 911.805 615.71 920.576 576C929.129 537.275 926.32 498.257 928.039 459C929.906 416.376 928.511 373.616 928.004 331C927.103 255.215 928.483 172.747 863 120.666C813.879 81.5982 750.888 80 691 80L525 80z"/>
<path style="fill:#f7f7f7; stroke:none;" d="M586.667 79.3333L587.333 79.6667L586.667 79.3333z"/>
<path style="fill:#fefefe; stroke:none;" d="M500.667 80.3333L501.333 80.6667L500.667 80.3333z"/>
<path style="fill:#f7f7f7; stroke:none;" d="M360 124C353.317 124.754 342.287 137.202 342.019 144.015C340.736 176.564 342 209.423 342 242L342 541L342 622C342 630.171 338.934 646.179 343.279 653.251C349.274 663.009 360.356 670.521 369.536 676.92C401.874 699.46 437.511 706.493 476 710.17C487.844 711.301 500.081 711.808 512 711.846C515.171 711.857 521.768 713.085 524.411 710.961C527.595 708.404 526 699.639 526 696L526 654C504.259 655.267 480.498 654.015 459 650.562C446.021 648.477 432.97 645.312 421 639.766C369.437 615.878 357.616 566.883 354.859 515.184C352.243 466.135 353.953 417.126 352.986 368C352.393 337.869 353.196 307.574 354.804 277.487C356.86 239.014 361.541 203.572 389.13 174.093C422.594 138.338 480.429 136.421 526 138L526 96C526 92.3827 527.6 83.5562 524.4 81.0386C522.046 79.1857 516.796 80.1357 513.985 80.1505C504.971 80.1981 496.021 80.9855 487 81C453.963 81.0531 418.667 87.926 389 102.759C379.683 107.418 364.926 114.438 360 124z"/>
<path style="fill:#fefefe; stroke:none;" d="M504 80L504 81L507 81L504 80M512.667 80.3333L513.333 80.6667L512.667 80.3333M519 80L520 81L519 80M478 81L479 82L478 81M464 82L465 83L464 82M455.667 83.3333L456.333 83.6667L455.667 83.3333M447 84L448 85L447 84M442.667 85.3333L443.333 85.6667L442.667 85.3333z"/>
<path style="fill:#f3f3f3; stroke:none;" d="M437 86L438 87L437 86z"/>
<path style="fill:#fefefe; stroke:none;" d="M432 87L433 88L432 87z"/>
<path style="fill:#f3f3f3; stroke:none;" d="M428 88L429 89L428 88z"/>
<path style="fill:#fefefe; stroke:none;" d="M424 89L425 90L424 89M420 90L421 91L420 90M417 91L418 92L417 91M414 92L415 93L414 92M411 93L412 94L411 93M408 94L409 95L408 94M403 96L404 97L403 96M398 98L399 99L398 98z"/>
<path style="fill:#f3f3f3; stroke:none;" d="M396 99L397 100L396 99M382 106L383 107L382 106z"/>
<path style="fill:#fefefe; stroke:none;" d="M380 107L381 108L380 107z"/>
<path style="fill:#f3f3f3; stroke:none;" d="M377 109L378 110L377 109z"/>
<path style="fill:#fefefe; stroke:none;" d="M375 110L376 111L375 110M372 112L373 113L372 112z"/>
<path style="fill:#f3f3f3; stroke:none;" d="M368 115L369 116L368 115M367 116L368 117L367 116z"/>
<path style="fill:#ebebeb; stroke:none;" d="M364 118L365 119L364 118z"/>
<path style="fill:#f3f3f3; stroke:none;" d="M365 118L366 119L365 118M363 119L364 120L363 119z"/>
<path style="fill:#fefefe; stroke:none;" d="M360 121L361 122L360 121M359 122L360 123L359 122z"/>
<path style="fill:#f3f3f3; stroke:none;" d="M359 123L360 124L359 123M357 124L358 125L357 124z"/>
<path style="fill:#fefefe; stroke:none;" d="M351 129L350 131L351 129z"/>
<path style="fill:#f3f3f3; stroke:none;" d="M351 130L352 131L351 130z"/>
<path style="fill:#fefefe; stroke:none;" d="M349 131L350 132L349 131M348 132L347 134L348 132z"/>
<path style="fill:#f3f3f3; stroke:none;" d="M348 133L349 134L348 133z"/>
<path style="fill:#fefefe; stroke:none;" d="M346 134L347 135L346 134M345 135L346 136L345 135z"/>
<path style="fill:#f3f3f3; stroke:none;" d="M345 136L346 137L345 136z"/>
<path style="fill:#fefefe; stroke:none;" d="M501 137L502 138L501 137M505 137L506 138L505 137M518 137L518 138L521 138L518 137z"/>
<path style="fill:#f7f7f7; stroke:none;" d="M529 137L529 138L537 138L529 137z"/>
<path style="fill:#010101; stroke:none;" d="M546 137.424C531.837 139.284 517.252 137.415 503 138.039C460.029 139.921 417.425 144.122 386.039 177C359.098 205.223 357.408 243.524 354.91 280C349.704 356.027 349.704 435.973 354.91 512C357.701 552.748 360.956 590.702 392 620.985C420.399 648.688 458.945 650.552 496 653.089C557.626 657.31 621.273 656.742 683 654.039C710.394 652.84 737.766 654.604 765 650.573C778.294 648.605 791.749 645.301 804 639.691C873.77 607.745 868.437 529.393 870.015 465C871.141 419.034 871.141 372.966 870.015 327C868.902 281.59 874.101 230.073 848.135 190C812.363 134.793 742.699 138.682 685 137.996C664.715 137.755 644.359 137 624 137C598.578 137 571.197 134.116 546 137.424z"/>
<path style="fill:#f3f3f3; stroke:none;" d="M343 138L344 139L343 138z"/>
<path style="fill:#fefefe; stroke:none;" d="M494 138L495 139L494 138M497.667 138.333L498.333 138.667L497.667 138.333z"/>
<path style="fill:#f3f3f3; stroke:none;" d="M477 139L478 140L477 139z"/>
<path style="fill:#fefefe; stroke:none;" d="M478 139L479 140L478 139z"/>
<path style="fill:#f3f3f3; stroke:none;" d="M341 140L341 143C332.222 147.21 326.183 159.799 321.576 168C305.437 196.732 300.127 228.64 297.91 261C294.402 312.229 295.387 363.805 295.996 415C296.531 459.962 294.662 505.092 299.169 550C301.148 569.717 310.568 587.962 313 607L322.656 626.001L341 652L342 652L342 289L342 185C342 172.27 345.907 151.694 341 140M466 140L467 141L466 140M458 141L459 142L458 141z"/>
<path style="fill:#f7f7f7; stroke:none;" d="M339.667 142.333L340.333 142.667L339.667 142.333z"/>
<path style="fill:#fefefe; stroke:none;" d="M452 142L453 143L452 142M338 143L339 144L338 143M447 143L448 144L447 143M337 144L338 145L337 144M443 144L444 145L443 144M439 145L440 146L439 145z"/>
<path style="fill:#ebebeb; stroke:none;" d="M334 148L335 149L334 148M429 148L430 149L429 148z"/>
<path style="fill:#f7f7f7; stroke:none;" d="M334 149L335 150L334 149z"/>
<path style="fill:#fefefe; stroke:none;" d="M424 150L425 151L424 150z"/>
<path style="fill:#f7f7f7; stroke:none;" d="M332 151L333 152L332 151z"/>
<path style="fill:#ebebeb; stroke:none;" d="M331 152L332 153L331 152z"/>
<path style="fill:#fefefe; stroke:none;" d="M417 153L418 154L417 153M415 154L416 155L415 154z"/>
<path style="fill:#f7f7f7; stroke:none;" d="M329 155L330 156L329 155z"/>
<path style="fill:#fefefe; stroke:none;" d="M413 155L414 156L413 155z"/>
<path style="fill:#f7f7f7; stroke:none;" d="M328 158L329 159L328 158z"/>
<path style="fill:#fefefe; stroke:none;" d="M408 158L409 159L408 158M326 159L327 160L326 159M402 162L403 163L402 162M323 164L324 165L323 164M398 165L399 166L398 165z"/>
<path style="fill:#ebebeb; stroke:none;" d="M322 166L323 167L322 166z"/>
<path style="fill:#f7f7f7; stroke:none;" d="M321 168L322 169L321 168z"/>
<path style="fill:#f3f3f3; stroke:none;" d="M393 169L394 170L393 169M391 171L392 172L391 171z"/>
<path style="fill:#ebebeb; stroke:none;" d="M390 172L391 173L390 172z"/>
<path style="fill:#f3f3f3; stroke:none;" d="M389 173L390 174L389 173z"/>
<path style="fill:#ebebeb; stroke:none;" d="M388 174L389 175L388 174z"/>
<path style="fill:#f3f3f3; stroke:none;" d="M387 175L388 176L387 175z"/>
<path style="fill:#f7f7f7; stroke:none;" d="M317 176L318 177L317 176M315 180L316 181L315 180z"/>
<path style="fill:#fefefe; stroke:none;" d="M314 182L315 183L314 182M381 182L382 183L381 182M378 186L379 187L378 186z"/>
<path style="fill:#ebebeb; stroke:none;" d="M312 187L313 188L312 187z"/>
<path style="fill:#fefefe; stroke:none;" d="M769 190C772.891 206.343 770 226.218 770 243C770 248.056 767.916 259.247 771.179 263.397C779.217 273.623 804.051 259.559 809.674 252.985C824.626 235.506 821.511 206.319 801 194.349C790.714 188.346 780.383 188.762 769 190z"/>
<path style="fill:#f7f7f7; stroke:none;" d="M774 189L775 190L774 189z"/>
<path style="fill:#f3f3f3; stroke:none;" d="M375 190L376 191L375 190z"/>
<path style="fill:#fefefe; stroke:none;" d="M766.667 191.333L767.333 191.667L766.667 191.333z"/>
<path style="fill:#f7f7f7; stroke:none;" d="M771 264C765.702 241.746 770 213.884 770 191C738.166 198.562 737.811 258.084 771 264z"/>
<path style="fill:#fefefe; stroke:none;" d="M310 192L311 193L310 192M374 192L375 193L374 192M764 192L765 193L764 192z"/>
<path style="fill:#f3f3f3; stroke:none;" d="M762 193L763 194L762 193z"/>
<path style="fill:#fefefe; stroke:none;" d="M760 194L761 195L760 194M309 195L310 196L309 195M757 196L758 197L757 196z"/>
<path style="fill:#ebebeb; stroke:none;" d="M371 197L372 198L371 197z"/>
<path style="fill:#f3f3f3; stroke:none;" d="M756 197L757 198L756 197z"/>
<path style="fill:#fefefe; stroke:none;" d="M308 198L309 199L308 198M370 199L371 200L370 199M307 201L308 202L307 201z"/>
<path style="fill:#ebebeb; stroke:none;" d="M369 201L370 202L369 201z"/>
<path style="fill:#f3f3f3; stroke:none;" d="M752 201L753 202L752 201M368.333 202.667L368.667 203.333L368.333 202.667z"/>
<path style="fill:#fefefe; stroke:none;" d="M750 203L751 204L750 203z"/>
<path style="fill:#f3f3f3; stroke:none;" d="M750 204L751 205L750 204M748 206L749 207L748 206z"/>
<path style="fill:#fefefe; stroke:none;" d="M305 208L306 209L305 208M366 208L367 209L366 208z"/>
<path style="fill:#f3f3f3; stroke:none;" d="M747 208C742.874 222.432 741.432 231.566 747 246L748 246C748 235.089 751.211 218.036 747 208z"/>
<path style="fill:#f7f7f7; stroke:none;" d="M746 210L747 211L746 210M745 212L746 213L745 212z"/>
<path style="fill:#fefefe; stroke:none;" d="M744 214L745 215L744 214M303 216L304 217L303 216z"/>
<path style="fill:#f3f3f3; stroke:none;" d="M363 216L364 217L363 216z"/>
<path style="fill:#f7f7f7; stroke:none;" d="M302 221L303 222L302 221z"/>
<path style="fill:#f3f3f3; stroke:none;" d="M361.333 221.667L361.667 222.333L361.333 221.667z"/>
<path style="fill:#fefefe; stroke:none;" d="M361 223L362 224L361 223M742 223L743 224L742 223z"/>
<path style="fill:#ebebeb; stroke:none;" d="M742 224L743 225L742 224z"/>
<path style="fill:#f3f3f3; stroke:none;" d="M360 225L361 226L360 225z"/>
<path style="fill:#f7f7f7; stroke:none;" d="M742 225L743 226L742 225z"/>
<path style="fill:#ebebeb; stroke:none;" d="M301 226L302 227L301 226z"/>
<path style="fill:#fefefe; stroke:none;" d="M360 227L361 228L360 227z"/>
<path style="fill:#ebebeb; stroke:none;" d="M742 228L743 229L742 228z"/>
<path style="fill:#f3f3f3; stroke:none;" d="M359 230L360 231L359 230z"/>
<path style="fill:#fefefe; stroke:none;" d="M742 230L743 231L742 230M359 231L360 232L359 231M579 238L574 239L567 239C571.525 258.005 568 281.469 568 301L569 301L574 299C578.331 294.915 586.302 294.287 592 293.197C611.636 289.439 631.4 291.069 650 298.604C719.206 326.639 737.89 415.286 686.576 468.83C664.804 491.548 632.274 503.9 601 500.155C592.944 499.191 580.257 498.466 574 493L566 490L568 512L567 553C579.748 554.075 592.092 558.027 605 558.911C634.434 560.926 665.278 552.636 691 538.691C779.376 490.781 801.366 368.966 737.916 292C708.62 256.464 668.739 239.01 624 233.714C612.953 232.407 601.725 232.999 590.718 234.551C586.823 235.1 581.631 234.866 579 238z"/>
<path style="fill:#f3f3f3; stroke:none;" d="M358.333 234.667L358.667 235.333L358.333 234.667z"/>
<path style="fill:#f7f7f7; stroke:none;" d="M592 234L593 235L592 234M585 235L586 236L585 235z"/>
<path style="fill:#ebebeb; stroke:none;" d="M358 236L359 237L358 236z"/>
<path style="fill:#fefefe; stroke:none;" d="M743 236L744 237L743 236z"/>
<path style="fill:#f7f7f7; stroke:none;" d="M577.667 237.333L578.333 237.667L577.667 237.333M573 238L574 239L573 238z"/>
<path style="fill:#fefefe; stroke:none;" d="M299 239L300 240L299 239z"/>
<path style="fill:#f3f3f3; stroke:none;" d="M357 239L358 240L357 239z"/>
<path style="fill:#ebebeb; stroke:none;" d="M744 239L745 240L744 239z"/>
<path style="fill:#fefefe; stroke:none;" d="M563 240L564 241L563 240z"/>
<path style="fill:#f7f7f7; stroke:none;" d="M568 552L568 506C568 501.2 569.906 492.193 564 491C560.717 485.767 552.934 482.745 548.039 478.975C539.737 472.579 532.295 464.62 526.348 456C501.367 419.793 500.803 372.228 526.208 336C534.47 324.219 549.963 316.599 557 305L567.397 299.585L568 282L568 240C538.842 242.922 507.117 267.372 489.084 289.004C483.856 295.276 477.132 302.543 473.728 310C471.072 315.818 473 325.635 473 332L473 382L473 449C473 458.258 470.628 471.152 473.219 479.985C475.797 488.773 484.413 497.264 490.286 504.039C508.85 525.456 538.822 548.364 568 552z"/>
<path style="fill:#fefefe; stroke:none;" d="M560.667 241.333L561.333 241.667L560.667 241.333z"/>
<path style="fill:#f3f3f3; stroke:none;" d="M357 242L358 243L357 242z"/>
<path style="fill:#fefefe; stroke:none;" d="M557.667 242.333L558.333 242.667L557.667 242.333z"/>
<path style="fill:#ebebeb; stroke:none;" d="M745 242L746 243L745 242z"/>
<path style="fill:#fefefe; stroke:none;" d="M555 243L556 244L555 243z"/>
<path style="fill:#ebebeb; stroke:none;" d="M746 244L747 245L746 244z"/>
<path style="fill:#fefefe; stroke:none;" d="M549 245L550 246L549 245z"/>
<path style="fill:#f3f3f3; stroke:none;" d="M356 246L357 247L356 246z"/>
<path style="fill:#fefefe; stroke:none;" d="M547 246L548 247L547 246M747 246L748 247L747 246z"/>
<path style="fill:#f3f3f3; stroke:none;" d="M748 247L749 248L748 247z"/>
<path style="fill:#fefefe; stroke:none;" d="M298 248L299 249L298 248z"/>
<path style="fill:#f3f3f3; stroke:none;" d="M356.333 248.667L356.667 249.333L356.333 248.667z"/>
<path style="fill:#f7f7f7; stroke:none;" d="M298 249L299 250L298 249z"/>
<path style="fill:#fefefe; stroke:none;" d="M540 249L541 250L540 249M749 249L750 250L749 249M356 250L357 251L356 250M538 250L539 251L538 250z"/>
<path style="fill:#f3f3f3; stroke:none;" d="M750 250L751 251L750 250M531 254L532 255L531 254z"/>
<path style="fill:#fefefe; stroke:none;" d="M753 254L754 255L753 254M529 255L530 256L529 255z"/>
<path style="fill:#f3f3f3; stroke:none;" d="M355.333 256.667L355.667 257.333L355.333 256.667M526 257L527 258L526 257z"/>
<path style="fill:#fefefe; stroke:none;" d="M524 258L525 259L524 258M758 258L759 259L758 258z"/>
<path style="fill:#f3f3f3; stroke:none;" d="M355.333 260.667L355.667 261.333L355.333 260.667z"/>
<path style="fill:#fefefe; stroke:none;" d="M521 260L522 261L521 260M761 260L762 261L761 260M297 261L298 262L297 261M763 261L764 262L763 261z"/>
<path style="fill:#ebebeb; stroke:none;" d="M297 262L298 263L297 262z"/>
<path style="fill:#fefefe; stroke:none;" d="M355 262L356 263L355 262M518 262L519 263L518 262M765 262L766 263L765 262z"/>
<path style="fill:#f7f7f7; stroke:none;" d="M297.333 263.667L297.667 264.333L297.333 263.667z"/>
<path style="fill:#fefefe; stroke:none;" d="M514 265L515 266L514 265M510 268L511 269L510 268z"/>
<path style="fill:#f3f3f3; stroke:none;" d="M354 269L355 270L354 269M509 269L510 270L509 269M354 271L355 272L354 271z"/>
<path style="fill:#fefefe; stroke:none;" d="M504 273L505 274L504 273M503 274L504 275L503 274z"/>
<path style="fill:#ebebeb; stroke:none;" d="M502 275L503 276L502 275z"/>
<path style="fill:#f3f3f3; stroke:none;" d="M354 278L355 279L354 278M354 280L355 281L354 280z"/>
<path style="fill:#ebebeb; stroke:none;" d="M354 282L355 283L354 282z"/>
<path style="fill:#f3f3f3; stroke:none;" d="M495 282L496 283L495 282z"/>
<path style="fill:#fefefe; stroke:none;" d="M296 283L297 284L296 283M354 283L355 284L354 283z"/>
<path style="fill:#ebebeb; stroke:none;" d="M296 284L297 285L296 284M296 286L297 287L296 286M491 286L492 287L491 286z"/>
<path style="fill:#fefefe; stroke:none;" d="M490 287L491 288L490 287M489 288L490 289L489 288z"/>
<path style="fill:#010101; stroke:none;" d="M603 291.424C585.624 293.734 568.646 298.328 554 308.436C541.341 317.173 530.642 327.814 522.615 341C476.825 416.222 541.406 511.997 628 499.715C642.512 497.656 656.798 492.065 669 483.996C699.416 463.883 718.569 428.731 716.961 392C714.466 335.04 661.7 283.623 603 291.424z"/>
<path style="fill:#f3f3f3; stroke:none;" d="M486 292L487 293L486 292z"/>
<path style="fill:#ebebeb; stroke:none;" d="M485 293L486 294L485 293z"/>
<path style="fill:#fefefe; stroke:none;" d="M484 294L485 295L484 294z"/>
<path style="fill:#f7f7f7; stroke:none;" d="M584 294L585 295L584 294z"/>
<path style="fill:#f3f3f3; stroke:none;" d="M353 295L354 296L353 295z"/>
<path style="fill:#f7f7f7; stroke:none;" d="M581 295L582 296L581 295z"/>
<path style="fill:#f3f3f3; stroke:none;" d="M483 296L484 297L483 296z"/>
<path style="fill:#f7f7f7; stroke:none;" d="M576 296L577 297L576 296M574.667 297.333L575.333 297.667L574.667 297.333z"/>
<path style="fill:#fefefe; stroke:none;" d="M481 298L482 299L481 298z"/>
<path style="fill:#f7f7f7; stroke:none;" d="M572 298L573 299L572 298z"/>
<path style="fill:#f3f3f3; stroke:none;" d="M353 299L354 300L353 299M481 299L482 300L481 299z"/>
<path style="fill:#f7f7f7; stroke:none;" d="M569 299L570 300L569 299z"/>
<path style="fill:#f3f3f3; stroke:none;" d="M480 300L481 301L480 300M479 301L480 302L479 301z"/>
<path style="fill:#fefefe; stroke:none;" d="M566 301L567 302L566 301z"/>
<path style="fill:#f3f3f3; stroke:none;" d="M353 302L354 303L353 302z"/>
<path style="fill:#fefefe; stroke:none;" d="M478 302L479 303L478 302M563.667 302.333L564.333 302.667L563.667 302.333M562 303L563 304L562 303M560 304L561 305L560 304M476 305L477 306L476 305M557 305L558 306L557 305z"/>
<path style="fill:#f3f3f3; stroke:none;" d="M353 306L354 307L353 306M475 307L476 308L475 307M555 307L556 308L555 307M353.333 309.667L353.667 310.333L353.333 309.667M552 309L553 310L552 309z"/>
<path style="fill:#fefefe; stroke:none;" d="M551 310L552 311L551 310M549 311L550 312L549 311M548 312L549 313L548 312z"/>
<path style="fill:#f3f3f3; stroke:none;" d="M353 313L353 317L354 317L353 313z"/>
<path style="fill:#fefefe; stroke:none;" d="M471 313L472 314L471 313z"/>
<path style="fill:#f3f3f3; stroke:none;" d="M472 313C448.135 349.218 443.728 398.922 455.294 440C458.288 450.633 463.424 471.687 473 478L473 362C473 348.223 477.306 325.645 472 313z"/>
<path style="fill:#ebebeb; stroke:none;" d="M470 315L471 316L470 315z"/>
<path style="fill:#fefefe; stroke:none;" d="M543 316L544 317L543 316M542 317L543 318L542 317M541 318L542 319L541 318z"/>
<path style="fill:#f3f3f3; stroke:none;" d="M353 322L353 325L354 325L353 322z"/>
<path style="fill:#f7f7f7; stroke:none;" d="M466 323L467 324L466 323z"/>
<path style="fill:#fefefe; stroke:none;" d="M465 324L466 325L465 324z"/>
<path style="fill:#ebebeb; stroke:none;" d="M353.333 325.667L353.667 326.333L353.333 325.667z"/>
<path style="fill:#f7f7f7; stroke:none;" d="M465 325L466 326L465 325z"/>
<path style="fill:#fefefe; stroke:none;" d="M534 325L535 326L534 325M533 326L534 327L533 326M353 327L353 332L354 332L353 327z"/>
<path style="fill:#f3f3f3; stroke:none;" d="M532 327L533 328L532 327z"/>
<path style="fill:#f7f7f7; stroke:none;" d="M463 329L464 330L463 329z"/>
<path style="fill:#ebebeb; stroke:none;" d="M462 331L463 332L462 331z"/>
<path style="fill:#f7f7f7; stroke:none;" d="M462 332L461 335L462 332z"/>
<path style="fill:#fefefe; stroke:none;" d="M528 332L529 333L528 332M461 333L462 334L461 333M526 335L527 336L526 335z"/>
<path style="fill:#f3f3f3; stroke:none;" d="M525 336L526 337L525 336z"/>
<path style="fill:#fefefe; stroke:none;" d="M295 337L295 341L296 341L295 337z"/>
<path style="fill:#f7f7f7; stroke:none;" d="M460 337L461 338L460 337z"/>
<path style="fill:#fefefe; stroke:none;" d="M459 338L460 339L459 338z"/>
<path style="fill:#f7f7f7; stroke:none;" d="M459 340L460 341L459 340z"/>
<path style="fill:#ebebeb; stroke:none;" d="M295 341L295 344L296 344L295 341z"/>
<path style="fill:#fefefe; stroke:none;" d="M458 341L459 342L458 341M522 341L523 342L522 341M457 344L458 345L457 344z"/>
<path style="fill:#f3f3f3; stroke:none;" d="M520 344L521 345L520 344z"/>
<path style="fill:#fefefe; stroke:none;" d="M519 346L520 347L519 346M456 347L457 348L456 347M518 348L519 349L518 348M517 350L518 351L517 350M516 352L517 353L516 352M454 354L455 355L454 354M514 357L515 358L514 357z"/>
<path style="fill:#f7f7f7; stroke:none;" d="M295 358L295 376L296 376L295 358z"/>
<path style="fill:#fefefe; stroke:none;" d="M453 358L454 359L453 358z"/>
<path style="fill:#f7f7f7; stroke:none;" d="M453 359L454 360L453 359z"/>
<path style="fill:#f3f3f3; stroke:none;" d="M352 360L352 363L353 363L352 360M512 362L513 363L512 362z"/>
<path style="fill:#fefefe; stroke:none;" d="M451 368L452 369L451 368M510 369L511 370L510 369M509 373L510 374L509 373M450 375L451 376L450 375z"/>
<path style="fill:#ebebeb; stroke:none;" d="M295 376L295 383L296 383L295 376z"/>
<path style="fill:#f3f3f3; stroke:none;" d="M508 378L509 379L508 378z"/>
<path style="fill:#ebebeb; stroke:none;" d="M449.333 386.667L449.667 387.333L449.333 386.667z"/>
<path style="fill:#fefefe; stroke:none;" d="M507.333 386.667L507.667 387.333L507.333 386.667z"/>
<path style="fill:#f7f7f7; stroke:none;" d="M449 389L450 390L449 389M449 402L450 403L449 402z"/>
<path style="fill:#ebebeb; stroke:none;" d="M449.333 404.667L449.667 405.333L449.333 404.667z"/>
<path style="fill:#fefefe; stroke:none;" d="M507 404L508 405L507 404z"/>
<path style="fill:#ebebeb; stroke:none;" d="M507 405L508 406L507 405M295 408L295 416L296 416L295 408z"/>
<path style="fill:#f7f7f7; stroke:none;" d="M450 414L451 415L450 414M295 416L295 434L296 434L295 416z"/>
<path style="fill:#fefefe; stroke:none;" d="M450 416L451 417L450 416z"/>
<path style="fill:#ebebeb; stroke:none;" d="M509 418L510 419L509 418z"/>
<path style="fill:#fefefe; stroke:none;" d="M510 422L511 423L510 422M451 423L452 424L451 423z"/>
<path style="fill:#f7f7f7; stroke:none;" d="M452 427L453 428L452 427z"/>
<path style="fill:#f3f3f3; stroke:none;" d="M352 429L352 432L353 432L352 429z"/>
<path style="fill:#f7f7f7; stroke:none;" d="M453 432L454 433L453 432z"/>
<path style="fill:#fefefe; stroke:none;" d="M453 433L454 434L453 433M514 434L515 435L514 434M454 437L455 438L454 437z"/>
<path style="fill:#f3f3f3; stroke:none;" d="M516 439L517 440L516 439z"/>
<path style="fill:#f7f7f7; stroke:none;" d="M455 440L456 441L455 440z"/>
<path style="fill:#fefefe; stroke:none;" d="M517 441L518 442L517 441M518 443L519 444L518 443M456 444L457 445L456 444M519 445L520 446L519 445M457 447L458 448L457 447z"/>
<path style="fill:#ebebeb; stroke:none;" d="M295 448L295 451L296 451L295 448z"/>
<path style="fill:#f7f7f7; stroke:none;" d="M458.333 448.667L458.667 449.333L458.333 448.667z"/>
<path style="fill:#fefefe; stroke:none;" d="M458 450L459 451L458 450M522 450L523 451L522 450M295 451L295 455L296 455L295 451z"/>
<path style="fill:#f7f7f7; stroke:none;" d="M459 451L460 452L459 451z"/>
<path style="fill:#fefefe; stroke:none;" d="M524 453L525 454L524 453z"/>
<path style="fill:#f7f7f7; stroke:none;" d="M460 454L461 455L460 454z"/>
<path style="fill:#ebebeb; stroke:none;" d="M460 455L461 456L460 455z"/>
<path style="fill:#fefefe; stroke:none;" d="M526 456L527 457L526 456z"/>
<path style="fill:#f7f7f7; stroke:none;" d="M462 459L463 460L462 459z"/>
<path style="fill:#fefefe; stroke:none;" d="M528 459L529 460L528 459M353 460L353 465L354 465L353 460M462 460L463 461L462 460M529 460L530 461L529 460z"/>
<path style="fill:#f7f7f7; stroke:none;" d="M463.333 461.667L463.667 462.333L463.333 461.667z"/>
<path style="fill:#ebebeb; stroke:none;" d="M353.333 465.667L353.667 466.333L353.333 465.667z"/>
<path style="fill:#fefefe; stroke:none;" d="M533 465L534 466L533 465z"/>
<path style="fill:#f7f7f7; stroke:none;" d="M465 466L466 467L465 466z"/>
<path style="fill:#fefefe; stroke:none;" d="M534 466L535 467L534 466z"/>
<path style="fill:#f3f3f3; stroke:none;" d="M353 467L353 470L354 470L353 467z"/>
<path style="fill:#fefefe; stroke:none;" d="M535 467L536 468L535 467M536 468L537 469L536 468z"/>
<path style="fill:#f7f7f7; stroke:none;" d="M468.333 471.667L468.667 472.333L468.333 471.667z"/>
<path style="fill:#fefefe; stroke:none;" d="M539 471L540 472L539 471M540 472L541 473L540 472M541 473L542 474L541 473z"/>
<path style="fill:#f7f7f7; stroke:none;" d="M469 474L470 475L469 474z"/>
<path style="fill:#fefefe; stroke:none;" d="M542 474L543 475L542 474z"/>
<path style="fill:#f3f3f3; stroke:none;" d="M353 475L353 479L354 479L353 475z"/>
<path style="fill:#fefefe; stroke:none;" d="M470 476L471 477L470 476M544 476L545 477L544 476M471 478L472 479L471 478M547 478L548 479L547 478z"/>
<path style="fill:#f3f3f3; stroke:none;" d="M472 479L473 480L472 479M548 479L549 480L548 479z"/>
<path style="fill:#fefefe; stroke:none;" d="M549 480L550 481L549 480z"/>
<path style="fill:#f3f3f3; stroke:none;" d="M353.333 481.667L353.667 482.333L353.333 481.667z"/>
<path style="fill:#ebebeb; stroke:none;" d="M473 481L474 482L473 481z"/>
<path style="fill:#fefefe; stroke:none;" d="M551 481L552 482L551 481z"/>
<path style="fill:#f3f3f3; stroke:none;" d="M474 482L475 483L474 482M353 485L354 486L353 485M476 485L477 486L476 485z"/>
<path style="fill:#fefefe; stroke:none;" d="M557 485L558 486L557 485M476 486L477 487L476 486M558 486L559 487L558 486M559 487L560 488L559 487M562 488L563 489L562 488z"/>
<path style="fill:#f3f3f3; stroke:none;" d="M353 489L354 490L353 489z"/>
<path style="fill:#fefefe; stroke:none;" d="M564.333 489.667L564.667 490.333L564.333 489.667z"/>
<path style="fill:#f3f3f3; stroke:none;" d="M479 490L480 491L479 490M480 491L481 492L480 491z"/>
<path style="fill:#f7f7f7; stroke:none;" d="M568 491L569 492L568 491z"/>
<path style="fill:#f3f3f3; stroke:none;" d="M353 492L354 493L353 492M481 492L482 493L481 492z"/>
<path style="fill:#f7f7f7; stroke:none;" d="M570 492L571 493L570 492z"/>
<path style="fill:#fefefe; stroke:none;" d="M481 493L482 494L481 493z"/>
<path style="fill:#f7f7f7; stroke:none;" d="M572 493L573 494L572 493M574.667 494.333L575.333 494.667L574.667 494.333M577.667 495.333L578.333 495.667L577.667 495.333z"/>
<path style="fill:#f3f3f3; stroke:none;" d="M353 496L354 497L353 496M484 496L485 497L484 496z"/>
<path style="fill:#f7f7f7; stroke:none;" d="M581 496L582 497L581 496z"/>
<path style="fill:#fefefe; stroke:none;" d="M485 498L486 499L485 498z"/>
<path style="fill:#f3f3f3; stroke:none;" d="M487 500L488 501L487 500M488 501L489 502L488 501z"/>
<path style="fill:#fefefe; stroke:none;" d="M490 504L491 505L490 504z"/>
<path style="fill:#ebebeb; stroke:none;" d="M296 505L297 506L296 505M491 505L492 506L491 505M492 506L493 507L492 506z"/>
<path style="fill:#fefefe; stroke:none;" d="M296.333 507.667L296.667 508.333L296.333 507.667z"/>
<path style="fill:#f3f3f3; stroke:none;" d="M493 507L494 508L493 507z"/>
<path style="fill:#fefefe; stroke:none;" d="M354 508L355 509L354 508z"/>
<path style="fill:#f3f3f3; stroke:none;" d="M494 508L495 509L494 508z"/>
<path style="fill:#ebebeb; stroke:none;" d="M354 509L355 510L354 509z"/>
<path style="fill:#f3f3f3; stroke:none;" d="M354 511L355 512L354 511M354 513L355 514L354 513M499 513L500 514L499 513M500 514L501 515L500 514z"/>
<path style="fill:#ebebeb; stroke:none;" d="M501 515L502 516L501 515M502 516L503 517L502 516z"/>
<path style="fill:#fefefe; stroke:none;" d="M503 517L504 518L503 517M509 522L510 523L509 522z"/>
<path style="fill:#f3f3f3; stroke:none;" d="M513 525L514 526L513 525z"/>
<path style="fill:#fefefe; stroke:none;" d="M514 526L515 527L514 526z"/>
<path style="fill:#f7f7f7; stroke:none;" d="M297 528L298 529L297 528z"/>
<path style="fill:#ebebeb; stroke:none;" d="M517 528L518 529L517 528M297 529L298 530L297 529z"/>
<path style="fill:#fefefe; stroke:none;" d="M355 529L356 530L355 529M297 530L298 531L297 530z"/>
<path style="fill:#f3f3f3; stroke:none;" d="M355 531L356 532L355 531z"/>
<path style="fill:#fefefe; stroke:none;" d="M521 531L522 532L521 531z"/>
<path style="fill:#f3f3f3; stroke:none;" d="M355 534L356 535L355 534M526 534L527 535L526 534z"/>
<path style="fill:#fefefe; stroke:none;" d="M529 536L530 537L529 536M531 537L532 538L531 537z"/>
<path style="fill:#ebebeb; stroke:none;" d="M356 541L357 542L356 541z"/>
<path style="fill:#f7f7f7; stroke:none;" d="M298 542L299 543L298 542z"/>
<path style="fill:#f3f3f3; stroke:none;" d="M356.333 542.667L356.667 543.333L356.333 542.667z"/>
<path style="fill:#fefefe; stroke:none;" d="M298 543L299 544L298 543M545 544L546 545L545 544z"/>
<path style="fill:#f3f3f3; stroke:none;" d="M356 545L357 546L356 545z"/>
<path style="fill:#fefefe; stroke:none;" d="M547 545L548 546L547 545M550 546L551 547L550 546M552.667 547.333L553.333 547.667L552.667 547.333M555 548L556 549L555 548z"/>
<path style="fill:#f3f3f3; stroke:none;" d="M357.333 549.667L357.667 550.333L357.333 549.667z"/>
<path style="fill:#fefefe; stroke:none;" d="M557 549L557 550L560 550L557 549M560 550L560 551L563 551L560 550M563 551L564 552L563 551M299 552L300 553L299 552z"/>
<path style="fill:#f3f3f3; stroke:none;" d="M357.333 552.667L357.667 553.333L357.333 552.667z"/>
<path style="fill:#f7f7f7; stroke:none;" d="M568 552L569 553L568 552M570 552L571 553L570 552M573 553L574 554L573 553M575.667 554.333L576.333 554.667L575.667 554.333z"/>
<path style="fill:#f3f3f3; stroke:none;" d="M358.333 555.667L358.667 556.333L358.333 555.667z"/>
<path style="fill:#f7f7f7; stroke:none;" d="M585 556L586 557L585 556z"/>
<path style="fill:#ebebeb; stroke:none;" d="M300 559L301 560L300 559z"/>
<path style="fill:#fefefe; stroke:none;" d="M359 560L360 561L359 560z"/>
<path style="fill:#f3f3f3; stroke:none;" d="M359 561L360 562L359 561z"/>
<path style="fill:#f7f7f7; stroke:none;" d="M301 564L302 565L301 564z"/>
<path style="fill:#fefefe; stroke:none;" d="M360 564L361 565L360 564M301 565L302 566L301 565z"/>
<path style="fill:#f3f3f3; stroke:none;" d="M360 566L361 567L360 566z"/>
<path style="fill:#fefefe; stroke:none;" d="M361 568L362 569L361 568z"/>
<path style="fill:#f3f3f3; stroke:none;" d="M361 569L362 570L361 569M362 573L363 574L362 573z"/>
<path style="fill:#f7f7f7; stroke:none;" d="M303 574L304 575L303 574z"/>
<path style="fill:#fefefe; stroke:none;" d="M303 575L304 576L303 575z"/>
<path style="fill:#f3f3f3; stroke:none;" d="M363 576L364 577L363 576z"/>
<path style="fill:#ebebeb; stroke:none;" d="M304 579L305 580L304 579z"/>
<path style="fill:#fefefe; stroke:none;" d="M305 583L306 584L305 583z"/>
<path style="fill:#ebebeb; stroke:none;" d="M366 583L367 584L366 583z"/>
<path style="fill:#f3f3f3; stroke:none;" d="M366 584L367 585L366 584z"/>
<path style="fill:#fefefe; stroke:none;" d="M367 585L368 586L367 585z"/>
<path style="fill:#f3f3f3; stroke:none;" d="M367 586L368 587L367 586z"/>
<path style="fill:#fefefe; stroke:none;" d="M307 590L308 591L307 590z"/>
<path style="fill:#f3f3f3; stroke:none;" d="M369 591L370 592L369 591z"/>
<path style="fill:#ebebeb; stroke:none;" d="M370 592L371 593L370 592z"/>
<path style="fill:#fefefe; stroke:none;" d="M308 593L309 594L308 593z"/>
<path style="fill:#f3f3f3; stroke:none;" d="M370 593L371 594L370 593z"/>
<path style="fill:#fefefe; stroke:none;" d="M309 596L310 597L309 596z"/>
<path style="fill:#f3f3f3; stroke:none;" d="M372 596L373 597L372 596M373 598L374 599L373 598z"/>
<path style="fill:#fefefe; stroke:none;" d="M374 599L375 600L374 599z"/>
<path style="fill:#f7f7f7; stroke:none;" d="M311 601L312 602L311 601z"/>
<path style="fill:#fefefe; stroke:none;" d="M312 604L313 605L312 604z"/>
<path style="fill:#f3f3f3; stroke:none;" d="M377 604L378 605L377 604z"/>
<path style="fill:#f7f7f7; stroke:none;" d="M313 605L314 606L313 605z"/>
<path style="fill:#fefefe; stroke:none;" d="M378 605L379 606L378 605z"/>
<path style="fill:#f7f7f7; stroke:none;" d="M314.333 607.667L314.667 608.333L314.333 607.667z"/>
<path style="fill:#f3f3f3; stroke:none;" d="M380 608L381 609L380 608z"/>
<path style="fill:#fefefe; stroke:none;" d="M314 609L315 610L314 609z"/>
<path style="fill:#ebebeb; stroke:none;" d="M381 609L382 610L381 609z"/>
<path style="fill:#fefefe; stroke:none;" d="M382 610L383 611L382 610z"/>
<path style="fill:#ebebeb; stroke:none;" d="M315 611L316 612L315 611z"/>
<path style="fill:#f7f7f7; stroke:none;" d="M316 612L317 613L316 612z"/>
<path style="fill:#f3f3f3; stroke:none;" d="M386 615L387 616L386 615z"/>
<path style="fill:#f7f7f7; stroke:none;" d="M318 617L319 618L318 617M319 618L320 619L319 618z"/>
<path style="fill:#f3f3f3; stroke:none;" d="M389 618L390 619L389 618z"/>
<path style="fill:#f7f7f7; stroke:none;" d="M320 621L321 622L320 621z"/>
<path style="fill:#f3f3f3; stroke:none;" d="M393 622L394 623L393 622z"/>
<path style="fill:#ebebeb; stroke:none;" d="M322 625L323 626L322 625z"/>
<path style="fill:#fefefe; stroke:none;" d="M398 626L399 627L398 626z"/>
<path style="fill:#f3f3f3; stroke:none;" d="M399 627L400 628L399 627z"/>
<path style="fill:#fefefe; stroke:none;" d="M402 629L403 630L402 629z"/>
<path style="fill:#ebebeb; stroke:none;" d="M325 630L326 631L325 630z"/>
<path style="fill:#fefefe; stroke:none;" d="M405 631L406 632L405 631M326 632L327 633L326 632z"/>
<path style="fill:#f7f7f7; stroke:none;" d="M327 633L328 634L327 633z"/>
<path style="fill:#fefefe; stroke:none;" d="M408 633L409 634L408 633z"/>
<path style="fill:#f7f7f7; stroke:none;" d="M328 634L329 635L328 634z"/>
<path style="fill:#fefefe; stroke:none;" d="M415 637L416 638L415 637z"/>
<path style="fill:#ebebeb; stroke:none;" d="M331 639L332 640L331 639z"/>
<path style="fill:#f7f7f7; stroke:none;" d="M332 640L333 641L332 640z"/>
<path style="fill:#f3f3f3; stroke:none;" d="M424 641L425 642L424 641z"/>
<path style="fill:#f7f7f7; stroke:none;" d="M334 642L335 643L334 642z"/>
<path style="fill:#fefefe; stroke:none;" d="M334 643L335 644L334 643M439 646L440 647L439 646M337 647L338 648L337 647M443 647L444 648L443 647M338 648L339 649L338 648M447 648L448 649L447 648z"/>
<path style="fill:#ebebeb; stroke:none;" d="M339 649L340 650L339 649z"/>
<path style="fill:#f3f3f3; stroke:none;" d="M458 650L459 651L458 650M466 651L467 652L466 651M477 652L478 653L477 652z"/>
<path style="fill:#fefefe; stroke:none;" d="M478 652L479 653L478 652z"/>
<path style="fill:#f3f3f3; stroke:none;" d="M343 653L344 654L343 653z"/>
<path style="fill:#fefefe; stroke:none;" d="M495 653L496 654L495 653M498.667 653.333L499.333 653.667L498.667 653.333M507 654L508 655L507 654M519 654L519 655L522 655L519 654z"/>
<path style="fill:#f7f7f7; stroke:none;" d="M529 654L529 655L537 655L529 654z"/>
<path style="fill:#f3f3f3; stroke:none;" d="M345 655L346 656L345 655z"/>
<path style="fill:#fefefe; stroke:none;" d="M347 658L349 660L347 658z"/>
<path style="fill:#f3f3f3; stroke:none;" d="M348 658L349 659L348 658z"/>
<path style="fill:#fefefe; stroke:none;" d="M349 660L350 661L349 660z"/>
<path style="fill:#ebebeb; stroke:none;" d="M358 668L359 669L358 668z"/>
<path style="fill:#fefefe; stroke:none;" d="M359 669L360 670L359 669M364 673L365 674L364 673z"/>
<path style="fill:#f3f3f3; stroke:none;" d="M367 675L368 676L367 675z"/>
<path style="fill:#ebebeb; stroke:none;" d="M368 676L369 677L368 676z"/>
<path style="fill:#f3f3f3; stroke:none;" d="M369 676L370 677L369 676z"/>
<path style="fill:#ebebeb; stroke:none;" d="M371 678L372 679L371 678z"/>
<path style="fill:#f3f3f3; stroke:none;" d="M372 678L373 679L372 678z"/>
<path style="fill:#fefefe; stroke:none;" d="M377 682L378 683L377 682z"/>
<path style="fill:#f3f3f3; stroke:none;" d="M382 685L383 686L382 685M384 686L385 687L384 686M390 689L391 690L390 689M394 691L395 692L394 691M396 692L397 693L396 692z"/>
<path style="fill:#fefefe; stroke:none;" d="M403 695L404 696L403 695z"/>
<path style="fill:#f3f3f3; stroke:none;" d="M409 697L410 698L409 697z"/>
<path style="fill:#fefefe; stroke:none;" d="M411 698L412 699L411 698M414 699L415 700L414 699M417 700L418 701L417 700z"/>
<path style="fill:#f3f3f3; stroke:none;" d="M421 701L422 702L421 701M425 702L426 703L425 702M428 703L429 704L428 703M437 705L438 706L437 705z"/>
<path style="fill:#fefefe; stroke:none;" d="M442.667 706.333L443.333 706.667L442.667 706.333M448 707L449 708L448 707M455 708L456 709L455 708M464 709L465 710L464 709M466 709L467 710L466 709M478 710L479 711L478 710M500.667 711.333L501.333 711.667L500.667 711.333M504 711L504 712L507 712L504 711M512.667 711.333L513.333 711.667L512.667 711.333M519 711L520 712L519 711z"/>
<path style="fill:#f7f7f7; stroke:none;" d="M586.667 712.333L587.333 712.667L586.667 712.333z"/>
</svg>
