<?xml version="1.0" standalone="yes"?>
<svg xmlns="http://www.w3.org/2000/svg" width="1080" height="1080">
<path style="fill:#010101; stroke:none;" d="M0 0L0 1080L1080 1080L1080 0L0 0z"/>
<path style="fill:#3f3f3f; stroke:none;" d="M233 1L233 2L263 2L233 1z"/>
<path style="fill:#696969; stroke:none;" d="M98 7L98 8C167.017 -2.14734 238.363 6.01025 308 2.96069C370.131 0.239868 432.756 2 495 2C621.032 2 747.031 3 873 3C866.806 0.400879 857.686 2 851 2C836.614 2 822.386 1 808 1L658 1C524.989 1 390.821 -3.85596 258 1.96069C226.425 3.34351 194.615 3 163 3C141.647 3 118.85 2.23425 98 7z"/>
<path style="fill:#3f3f3f; stroke:none;" d="M829 1L829 2L860 2L829 1M208 2L208 3L212 3L208 2z"/>
<path style="fill:#a6a6a6; stroke:none;" d="M312 2.42444C293.162 4.89758 273 3 254 3C223.95 3 194.057 4 164 4C144.676 4 122.967 2.63281 104 6.51465C76.0522 12.2345 50.7341 28.4933 32.3002 50C18.571 66.0176 5.20233 89.7148 2.20911 111C-0.451314 129.919 2 150.885 2 170L2 270L2 810L2 913C2 931.792 -0.406444 952.401 2.20911 971C5.24382 992.58 20.2272 1019.43 35.0401 1035C54.1461 1055.08 78.6293 1069.88 106 1075.49C128.858 1080.16 155.687 1078 179 1078L283 1078L739 1078L885 1078C913.334 1078 944.015 1080.21 972 1075.68C1020.05 1067.88 1062.75 1024.9 1073.5 978C1080.43 947.747 1077 911.952 1077 881C1077 690.104 1078 498.984 1078 308C1078 259.585 1077.2 211.312 1076.01 163C1075.19 129.327 1077.55 98.0125 1058.93 68C1040.32 38.0017 1010.06 13.5901 975 6.51392C939.266 -0.69873 897.378 3 861 3C737.045 3 613.024 2 489 2L372 2C352.408 2 331.423 -0.12561 312 2.42444z"/>
<path style="fill:#3f3f3f; stroke:none;" d="M873 2L873 3L878 3L873 2M120 3L120 4L135 4L120 3z"/>
<path style="fill:#ffffff; stroke:none;" d="M347 3.42444C326.879 6.06616 305.296 4 285 4C238.589 4 191.276 2.74109 145 5.91052C132.21 6.7865 118.652 5.18323 106 7.25928C82.4016 11.1316 57.6203 24.8391 41.2855 42.0895C23.4274 60.9485 8.35536 85.0213 3.37577 111C0.324492 126.919 3 145.786 3 162L3 267L3 812L3 909C3 928.757 0.453223 950.447 3.2091 970C6.69674 994.744 23.846 1022.43 41.2855 1039.58C59.027 1057.02 84.0251 1071.32 109 1074.79C124.06 1076.88 139.82 1075.37 155 1076.04C199.21 1077.98 243.697 1077 288 1077L740 1077L885 1077C912.827 1077 943.538 1079.12 971 1074.68C1019.49 1066.83 1061.54 1024.25 1072.41 977C1079.32 946.952 1076 910.727 1076 880C1076 689.76 1077 499.325 1077 309C1077 263.967 1075 218.966 1075 174C1075 137.414 1077.59 100.448 1057.57 68C1039.1 38.0652 1008.48 14.8198 974 7.45532C963.991 5.31738 952.244 6.4093 942 5.96069C917.039 4.86755 892.033 5.00159 867 5C748.078 4.9928 629.041 3 510 3L403 3C384.704 3 365.14 1.04285 347 3.42444z"/>
<path style="fill:#696969; stroke:none;" d="M874 3L874 4L982 8L953 3.8302L874 3z"/>
<path style="fill:#3f3f3f; stroke:none;" d="M950 3L950 4L963 4L950 3M113 4L113 5L118 5L113 4M965 4L965 5L968 5L965 4M102.667 5.33337L103.333 5.66663L102.667 5.33337M975.667 5.33337L976.333 5.66663L975.667 5.33337M100 6L101 7L100 6M978 6L979 7L978 6M95 7L95 8L98 8L95 7M982.667 7.33337L983.333 7.66663L982.667 7.33337M93 8L94 9L93 8z"/>
<path style="fill:#696969; stroke:none;" d="M94 8L94 9L97 9L94 8M983 8L983 9L988 10L988 9L983 8z"/>
<path style="fill:#3f3f3f; stroke:none;" d="M985.667 8.33337L986.333 8.66663L985.667 8.33337M90 9L91 10L90 9z"/>
<path style="fill:#696969; stroke:none;" d="M91 9L91 10L94 10L91 9z"/>
<path style="fill:#3f3f3f; stroke:none;" d="M988.667 9.33337L989.333 9.66663L988.667 9.33337M86.6667 10.3334L87.3333 10.6666L86.6667 10.3334z"/>
<path style="fill:#696969; stroke:none;" d="M88.6667 10.3334L89.3333 10.6666L88.6667 10.3334M989 10L989 11L992 11L989 10z"/>
<path style="fill:#3f3f3f; stroke:none;" d="M84 11L85 12L84 11z"/>
<path style="fill:#696969; stroke:none;" d="M85.6667 11.3334L86.3333 11.6666L85.6667 11.3334M992 11L992 12L998 14L998 13L992 11z"/>
<path style="fill:#3f3f3f; stroke:none;" d="M994 11L995 12L994 11M81 12L80 14L81 12z"/>
<path style="fill:#696969; stroke:none;" d="M81 13L81 14L85 13L81 13z"/>
<path style="fill:#3f3f3f; stroke:none;" d="M997 12L998 13L997 12M998 13L999 14L998 13z"/>
<path style="fill:#696969; stroke:none;" d="M77 16L80 15L77 16M999 14L999 15L1003 16L1003 15L999 14z"/>
<path style="fill:#3f3f3f; stroke:none;" d="M1002 14L1003 15L1002 14M76 15L77 16L76 15M72 16L73 17L72 16z"/>
<path style="fill:#696969; stroke:none;" d="M73 16L73 17L76 17L73 16M1003 16L1003 17L1007 18L1007 17L1003 16z"/>
<path style="fill:#3f3f3f; stroke:none;" d="M1006 16L1007 17L1006 16z"/>
<path style="fill:#696969; stroke:none;" d="M68 19L68 20L73 18L68 19z"/>
<path style="fill:#3f3f3f; stroke:none;" d="M68 18L69 19L68 18z"/>
<path style="fill:#696969; stroke:none;" d="M1007 18L1007 19L1011 20L1011 19L1007 18z"/>
<path style="fill:#3f3f3f; stroke:none;" d="M1010 18L1011 19L1010 18M65 20L64 22L65 20z"/>
<path style="fill:#696969; stroke:none;" d="M66.6667 20.3334L67.3333 20.6666L66.6667 20.3334M1011 20L1014 22L1011 20z"/>
<path style="fill:#3f3f3f; stroke:none;" d="M1013 20L1014 21L1013 20z"/>
<path style="fill:#696969; stroke:none;" d="M65 21L66 22L65 21z"/>
<path style="fill:#3f3f3f; stroke:none;" d="M62 22L59 24L59 25L63 23L62 22z"/>
<path style="fill:#696969; stroke:none;" d="M63.6667 22.3334L64.3333 22.6666L63.6667 22.3334M1014 22L1014 23L1024 29L1024 28L1014 22z"/>
<path style="fill:#3f3f3f; stroke:none;" d="M1016 22L1017 23L1016 22z"/>
<path style="fill:#696969; stroke:none;" d="M62 23L63 24L62 23z"/>
<path style="fill:#3f3f3f; stroke:none;" d="M1017 23L1018 24L1017 23z"/>
<path style="fill:#696969; stroke:none;" d="M60.6667 24.3334L61.3333 24.6666L60.6667 24.3334z"/>
<path style="fill:#3f3f3f; stroke:none;" d="M1019 24L1020 25L1019 24M57 25L56 27L57 25z"/>
<path style="fill:#696969; stroke:none;" d="M57 27L60 25L57 27z"/>
<path style="fill:#3f3f3f; stroke:none;" d="M1020 25L1021 26L1020 25M1021 26L1022 27L1021 26M54 27L55 28L54 27z"/>
<path style="fill:#696969; stroke:none;" d="M55.6667 27.3334L56.3333 27.6666L55.6667 27.3334M54 28L55 29L54 28M52 29L49 32L49 33L54 29L52 29M1024 29L1029 33L1029 32L1024 29z"/>
<path style="fill:#3f3f3f; stroke:none;" d="M1025 29L1026 30L1025 29M51 30L52 31L51 30M1026 30L1027 31L1026 30M49 31L50 32L49 31z"/>
<path style="fill:#696969; stroke:none;" d="M47 33L33 49L49 33L47 33M1029 33L1047 51L1029 33z"/>
<path style="fill:#3f3f3f; stroke:none;" d="M1030 33L1031 34L1030 33M45.3333 34.6666L45.6667 35.3334L45.3333 34.6666M1031 34L1032 35L1031 34M44 36L45 37L44 36M1033 36L1034 37L1033 36M43 37L44 38L43 37M1036 39L1037 40L1036 39M1037 40L1038 41L1037 40M1038 41L1039 42L1038 41M1039 42L1040 43L1039 42M37 43L38 44L37 43M1040 43L1041 44L1040 43M36 44L37 45L36 44M34.6667 45.3334L35.3333 45.6666L34.6667 45.3334M1045 48L1046 49L1045 48z"/>
<path style="fill:#696969; stroke:none;" d="M31 49L31 51L33 49L31 49z"/>
<path style="fill:#3f3f3f; stroke:none;" d="M1046 49L1047 50L1046 49M29 51L30 52L29 51z"/>
<path style="fill:#696969; stroke:none;" d="M30 51L20 66L21 66L30 51z"/>
<path style="fill:#3f3f3f; stroke:none;" d="M1047 51L1048 52L1047 51z"/>
<path style="fill:#696969; stroke:none;" d="M1047 52L1051 56L1047 52z"/>
<path style="fill:#3f3f3f; stroke:none;" d="M28 53L29 54L28 53M1049 53L1050 54L1049 53M27 54L28 55L27 54M1050 54L1051 55L1050 54M26 56L27 57L26 56M1051 56L1052 57L1051 56M25 57L26 58L25 57z"/>
<path style="fill:#696969; stroke:none;" d="M1051 57L1057 66L1058 66L1051 57z"/>
<path style="fill:#3f3f3f; stroke:none;" d="M1054 59L1055 60L1054 59M22.3333 60.6667L22.6667 61.3333L22.3333 60.6667M1055 61L1056 62L1055 61M21 62L22 63L21 62M1056 62L1057 63L1056 62M19 66L18 68L19 66z"/>
<path style="fill:#696969; stroke:none;" d="M1058 66L1060 69L1058 66z"/>
<path style="fill:#3f3f3f; stroke:none;" d="M1059 66L1060 67L1059 66z"/>
<path style="fill:#696969; stroke:none;" d="M19 67L20 68L19 67M18 68L14 77L15 77L18 68z"/>
<path style="fill:#3f3f3f; stroke:none;" d="M17 69L18 70L17 69M1060.67 69.3333L1061.33 69.6667L1060.67 69.3333M16 70L17 71L16 70z"/>
<path style="fill:#696969; stroke:none;" d="M1060 70L1061 73L1062 73L1062 70L1060 70z"/>
<path style="fill:#3f3f3f; stroke:none;" d="M15 73L16 74L15 73z"/>
<path style="fill:#696969; stroke:none;" d="M1062 73L1063 77L1064 77L1062 73z"/>
<path style="fill:#3f3f3f; stroke:none;" d="M1063 73L1064 74L1063 73M14 74L15 75L14 74z"/>
<path style="fill:#696969; stroke:none;" d="M13 77L12 82L13 82L13 77M1064 77L1065 81L1066 81L1064 77z"/>
<path style="fill:#3f3f3f; stroke:none;" d="M1065 77L1066 78L1065 77M12 78L13 79L12 78M1066 81L1068 83L1066 81M11 82L12 83L11 82z"/>
<path style="fill:#696969; stroke:none;" d="M1066 82L1068 88L1069 88L1066 82M11 83L10 87L11 87L11 83z"/>
<path style="fill:#3f3f3f; stroke:none;" d="M10 84L11 85L10 84M1068 85L1069 86L1068 85M9.33333 86.6667L9.66667 87.3333L9.33333 86.6667z"/>
<path style="fill:#696969; stroke:none;" d="M9 88C-2.55238 117.785 1 149.376 1 181L1 338L1 778L1 911C1 933.553 -2.52461 959.371 4 981L5 981C-0.921148 952.676 2 922.004 2 893L2 741L2 258L2 125C2 118.416 1.76541 112.324 3.83411 106C5.52842 100.82 9.93643 93.3455 9 88M1069 88L1071 96L1072 96L1069 88z"/>
<path style="fill:#3f3f3f; stroke:none;" d="M8 89L9 90L8 89M1070 90L1071 91L1070 90M7 91L8 92L7 91M1071 93L1072 94L1071 93M6 94L7 95L6 94M1072.33 95.6667L1072.67 96.3333L1072.33 95.6667M5 96L6 97L5 96z"/>
<path style="fill:#696969; stroke:none;" d="M1072 97L1076 169L1077 169C1077 147.722 1082.51 116.333 1072 97z"/>
<path style="fill:#3f3f3f; stroke:none;" d="M1073.33 99.6667L1073.67 100.333L1073.33 99.6667M4 100L5 101L4 100M3.33333 101.667L3.66667 102.333L3.33333 101.667M1074.33 102.667L1074.67 103.333L1074.33 102.667M2 106L3 107L2 106M1 107L2 108L1 107M1075.33 108.667L1075.67 109.333L1075.33 108.667M1076 111L1076 116L1077 116L1076 111M1077 165L1077 170L1078 170L1077 165z"/>
<path style="fill:#696969; stroke:none;" d="M1077 170L1077 912L1078 912L1079 387L1079 236L1078 193L1077 170z"/>
<path style="fill:#3f3f3f; stroke:none;" d="M1078 183L1078 205L1079 205L1078 183z"/>
<path style="fill:#a6a6a6; stroke:none;" d="M254 184.425C200.363 191.73 168.26 254.92 187.464 304C202.998 343.701 245.096 364.66 286 358.7C345.719 349.998 372.572 277.584 345.691 228C327.652 194.725 290.752 179.42 254 184.425z"/>
<path style="fill:#696969; stroke:none;" d="M246 187L246 188L289 188C277.481 182.829 258.241 185.453 246 187z"/>
<path style="fill:#3f3f3f; stroke:none;" d="M254 187L254 188L258 188L254 187z"/>
<path style="fill:#010101; stroke:none;" d="M258 187.424C206.136 194.234 171.79 250.011 189.244 300C203.171 339.89 244.614 360.713 285 355.816C334.746 349.783 363.45 291.76 350.124 247C338.18 206.88 299.471 181.979 258 187.424z"/>
<path style="fill:#3f3f3f; stroke:none;" d="M272 187L272 188L279 188L272 187z"/>
<path style="fill:#696969; stroke:none;" d="M188 243L189 243C198.779 216.49 220.517 200.587 245 189C238.886 187.929 229.975 193.91 225 197.206C210.01 207.138 191.336 224.283 188 243z"/>
<path style="fill:#3f3f3f; stroke:none;" d="M245.667 188.333L246.333 188.667L245.667 188.333M288 188L288 189L291 189L288 188z"/>
<path style="fill:#696969; stroke:none;" d="M291 188L291 189C306.739 192.29 315.606 203.315 329 210C323.266 198.583 303.309 189.075 291 188z"/>
<path style="fill:#3f3f3f; stroke:none;" d="M244 189L245 190L244 189M292.667 189.333L293.333 189.667L292.667 189.333M241 190L242 191L241 190M297 190L298 191L297 190M239.667 191.333L240.333 191.667L239.667 191.333M299 191L300 192L299 191M237 192L238 193L237 192M301.667 192.333L302.333 192.667L301.667 192.333M234.667 193.333L235.333 193.667L234.667 193.333M303.667 193.333L304.333 193.667L303.667 193.333M232.667 194.333L233.333 194.667L232.667 194.333M306 194L307 195L306 194M231 195L232 196L231 195M307.667 195.333L308.333 195.667L307.667 195.333M229 196L230 197L229 196M309 196L310 197L309 196M312 197L313 198L312 197M226 198L227 199L226 198M313 198L314 199L313 198M224 199L225 200L224 199M315 199L316 200L315 199M223 200L224 201L223 200M316 200L317 201L316 200M221 201L222 202L221 201M318 201L319 202L318 201M220 202L221 203L220 202M319 202L320 203L319 202M218 203L219 204L218 203M320 203L322 205L322 203L320 203M217 204L218 205L217 204M323 205L324 206L323 205M214.667 206.333L215.333 206.667L214.667 206.333M324 206L325 207L324 206M212 208L213 209L212 208M326 208L327 209L326 208M210 210L211 211L210 210z"/>
<path style="fill:#696969; stroke:none;" d="M329 210L331 212L331 210L329 210z"/>
<path style="fill:#3f3f3f; stroke:none;" d="M329 211L330 212L329 211M208 212L209 213L208 212z"/>
<path style="fill:#696969; stroke:none;" d="M331 212L331 214L333 214L333 212L331 212z"/>
<path style="fill:#3f3f3f; stroke:none;" d="M206.333 214.667L206.667 215.333L206.333 214.667z"/>
<path style="fill:#696969; stroke:none;" d="M333 214L343 229L344 229L333 214z"/>
<path style="fill:#3f3f3f; stroke:none;" d="M204 217L205 218L204 217M334 217L335 218L334 217M335 218L336 219L335 218M202 219L203 220L202 219M336 219L337 220L336 219M201 220L202 221L201 220M338 222L339 223L338 222M199 223L200 224L199 223M339 223L340 224L339 223M198 225L197 227L199 227L198 225M340 225L341 226L340 225M341 226L342 227L341 226M196 228L197 229L196 228M342 228L343 229L342 228M195.333 229.667L195.667 230.333L195.333 229.667M343 229L344 230L343 229z"/>
<path style="fill:#696969; stroke:none;" d="M344 230C346.229 238.919 350.819 246.815 352.54 256C357.87 284.444 346.535 305.24 333 329C353.552 313.236 358.153 277.624 353.4 254C351.774 245.922 349.772 236.175 344 230z"/>
<path style="fill:#3f3f3f; stroke:none;" d="M194 231L195 232L194 231M344 232L345 233L344 232M193 233L194 234L193 233M192 235L193 236L192 235M345 235L346 236L345 235M346 236L347 237L346 236M191 237L192 238L191 237M190.333 238.667L190.667 239.333L190.333 238.667M347.333 239.667L347.667 240.333L347.333 239.667M189 241L190 242L189 241M348 241L349 242L348 241M188 243L189 244L188 243z"/>
<path style="fill:#696969; stroke:none;" d="M187 244L186 250L187 250L187 244z"/>
<path style="fill:#3f3f3f; stroke:none;" d="M349.333 244.667L349.667 245.333L349.333 244.667M350.333 246.667L350.667 247.333L350.333 246.667M187.333 248.667L187.667 249.333L187.333 248.667M186 250L186 253L187 253L186 250M351 251L351 254L352 254L351 251z"/>
<path style="fill:#696969; stroke:none;" d="M185 253L185 287L186 287L185 253z"/>
<path style="fill:#3f3f3f; stroke:none;" d="M352 255L352 258L353 258L352 255M353 262L353 266L354 266L353 262M353 277L353 281L354 281L353 277M352.333 286.667L352.667 287.333L352.333 286.667M186 287L186 290L187 290L186 287z"/>
<path style="fill:#696969; stroke:none;" d="M186 290L187 298L188 298L186 290z"/>
<path style="fill:#3f3f3f; stroke:none;" d="M351.333 290.667L351.667 291.333L351.333 290.667M187.333 291.667L187.667 292.333L187.333 291.667M350 295L351 296L350 295M349 297L350 298L349 297M188 298L189 299L188 298z"/>
<path style="fill:#696969; stroke:none;" d="M188 299L198 320L199 320L188 299z"/>
<path style="fill:#3f3f3f; stroke:none;" d="M189 300L190 301L189 300M348 301L349 302L348 301M347.333 302.667L347.667 303.333L347.333 302.667M190 303L191 304L190 303M191 305L192 306L191 305M346 306L347 307L346 306M192 307L193 308L192 307M345 307L346 308L345 307M193 309L194 310L193 309M194 310L195 311L194 310M344 310L345 311L344 310M195.333 312.667L195.667 313.333L195.333 312.667M343 312L344 313L343 312M196 314L197 315L196 314M342 314L343 315L342 314M197 316L198 317L197 316M341 316L342 317L341 316M198 317L199 318L198 317M340 317L341 318L340 317M339 319L340 320L339 319z"/>
<path style="fill:#696969; stroke:none;" d="M199 320L208 331L199 320z"/>
<path style="fill:#3f3f3f; stroke:none;" d="M200 320L201 321L200 320M338 320L339 321L338 320M337.333 321.667L337.667 322.333L337.333 321.667M201 322L202 323L201 322M202 323L203 324L202 323M336 323L337 324L336 323M203 324L204 325L203 324M335 324L336 325L335 324M334.333 325.667L334.667 326.333L334.333 325.667M206.333 327.667L206.667 328.333L206.333 327.667M333 327L334 328L333 327M207 329L208 330L207 329M331 329L332 330L331 329z"/>
<path style="fill:#696969; stroke:none;" d="M332 329C309.784 351.091 276.074 364.715 245 353.62C231.856 348.927 221.804 339.815 210 333C229.853 360.599 275.337 363.846 304 351.138C311.307 347.899 332.193 338.118 332 329M208 331L208 333L210 333L208 331z"/>
<path style="fill:#3f3f3f; stroke:none;" d="M209 331L210 332L209 331M329 331L330 332L329 331M211 333L212 334L211 333M327 333L328 334L327 333M212.667 334.333L213.333 334.667L212.667 334.333M326 334L327 335L326 334M325 335L326 336L325 335M215 336L216 337L215 336M323.333 336.667L323.667 337.333L323.333 336.667M216 337L217 338L216 337M217 338L218 339L217 338M218 339L219 340L218 339M320 339L321 340L320 339M220 340L221 341L220 340M319 340L320 341L319 340M221 341L222 342L221 341M316 342L317 343L316 342M224 343L225 344L224 343M314 343L315 344L314 343M228 345L229 346L228 345M310 345L311 346L310 345M309 346L310 347L309 346M232 347L233 348L232 347M233 348L234 349L233 348M305 348L306 349L305 348M236 349L237 350L236 349M303 349L304 350L303 349M237 350L238 351L237 350M301 350L302 351L301 350M240 351L241 352L240 351M298.667 351.333L299.333 351.667L298.667 351.333M241.667 352.333L242.333 352.667L241.667 352.333M296.667 352.333L297.333 352.667L296.667 352.333M244.667 353.333L245.333 353.667L244.667 353.333M293.667 353.333L294.333 353.667L293.667 353.333M247.667 354.333L248.333 354.667L247.667 354.333M290.667 354.333L291.333 354.667L290.667 354.333M251.667 355.333L252.333 355.667L251.667 355.333M287.667 355.333L288.333 355.667L287.667 355.333M257.667 356.333L258.333 356.667L257.667 356.333M264 356L264 357L275 357L264 356M280.667 356.333L281.333 356.667L280.667 356.333z"/>
<path style="fill:#a6a6a6; stroke:none;" d="M582 481C578.23 468.246 581 451.296 581 438C581 434.089 582.68 424.797 579.258 422.028C574.131 417.88 556.504 421 550 421L470 421L447 421C444.296 421.006 440.05 420.378 438.603 423.318C435.126 430.385 438 445.146 438 453L438 526L438 786L438 867C438 873.598 434.873 891.151 439.028 896.397C440.891 898.75 445.383 897.999 448 898L471 898L549 898C556.257 898 572.561 901.057 578.682 896.972C583.299 893.892 581 880.879 581 876L581 812C581 765.387 581.844 718.582 582.985 672C583.531 649.731 579.686 624.67 585.88 603C598.024 560.51 641.446 536.232 684 543.324C715.163 548.518 739.633 576.737 746.471 607C749.119 618.715 747 633.005 747 645C747 703.724 748 762.308 748 821L748 873C748 879.186 746.106 889.131 748.603 894.852C751.461 901.398 774.741 898 781 898L867 898C872.944 898 892.22 901.078 895.821 895.682C900.015 889.398 897 873.408 897 866L897 787C897 736.006 896 684.909 896 634C896 571.328 896.742 507.724 851.83 458C798.67 399.144 697.505 391.888 632.004 432.936C613.408 444.589 592.001 460.923 582 481z"/>
<path style="fill:#696969; stroke:none;" d="M678 413L678 414L773 414C766.079 410.321 755.72 411.577 748 410.83C725.167 408.621 700.603 408.801 678 413z"/>
<path style="fill:#3f3f3f; stroke:none;" d="M700 411L700 412L711 412L700 411z"/>
<path style="fill:#010101; stroke:none;" d="M580 485C575.546 466.29 579 443.226 579 424L440 424L440 750L440 849C440 861.905 436.544 880.462 440.318 892.772C442.272 899.146 465.37 896 471 896L550 896C556.097 896 572.883 898.91 577.397 894.397C581.252 890.541 579 878.101 579 873L579 814C579 765.711 577.85 717.192 579.961 669C580.919 647.116 577.961 623.305 583.605 602C593.529 564.541 629.405 540.625 667 539.039C707.048 537.35 737.882 567.432 748.63 604C754.944 625.48 750 654.653 750 677C750 726.055 751 774.945 751 824L751 872C751 877.926 749.208 887.366 751.603 892.852C754.429 899.324 776.849 896 783 896L863 896C869.599 896 887.151 899.127 892.397 894.972C895.351 892.632 894 885.316 894 882L894 845L894 695C894 610.015 907.379 503.995 832.576 444.34C820.451 434.671 807.269 427.322 793 421.284C774.445 413.432 756.77 413.296 737 411.911C716.064 410.443 690.997 409.641 671 416.861C646.139 425.837 623.211 439.939 603.985 458.093C595.431 466.171 589.406 478.216 580 485z"/>
<path style="fill:#3f3f3f; stroke:none;" d="M733 411L733 412L740 412L733 411M692 412L692 413L698 413L692 412M745 412L745 413L751 413L745 412M682.667 413.333L683.333 413.667L682.667 413.333M764 413L764 414L767 414L764 413z"/>
<path style="fill:#696969; stroke:none;" d="M672 415L672 416L676 415L672 415z"/>
<path style="fill:#3f3f3f; stroke:none;" d="M676.667 414.333L677.333 414.667L676.667 414.333M774.667 414.333L775.333 414.667L774.667 414.333z"/>
<path style="fill:#696969; stroke:none;" d="M776 414L776 415L811 429C803.72 421.643 786.249 415.027 776 414z"/>
<path style="fill:#3f3f3f; stroke:none;" d="M675 415L676 416L675 415M777 415L778 416L777 415z"/>
<path style="fill:#696969; stroke:none;" d="M666 417L666 418L671 417L666 417z"/>
<path style="fill:#3f3f3f; stroke:none;" d="M671 416L672 417L671 416M781 416L782 417L781 416M668.667 417.333L669.333 417.667L668.667 417.333M783 417L784 418L783 417z"/>
<path style="fill:#696969; stroke:none;" d="M646 426L646 427L665 419L646 426z"/>
<path style="fill:#3f3f3f; stroke:none;" d="M665.667 418.333L666.333 418.667L665.667 418.333M785.667 418.333L786.333 418.667L785.667 418.333M663.667 419.333L664.333 419.667L663.667 419.333M788 419L789 420L788 419M661 420L662 421L661 420M791 420L792 421L791 420z"/>
<path style="fill:#a6a6a6; stroke:none;" d="M197.318 421.742L195 432L195 460L195 581L195 811L195 872L196.028 895.682L205 898L230 898L308 898L340.852 897.397L344 888L344 861L344 748L344 510L344 447L342.972 423.318L334 421L309 421L229 421L197.318 421.742z"/>
<path style="fill:#3f3f3f; stroke:none;" d="M659 421L660 422L659 421M793 421L794 422L793 421z"/>
<path style="fill:#696969; stroke:none;" d="M197 425L198 425C204.812 419.839 221.588 423 230 423L310 423C318.216 423 334.338 419.953 341 425C341.59 421.424 336.661 422.006 334 422L310 422L225 422C218.557 422 200.34 418.932 197 425M439 896L440 896L440 423L579 423C579 441.85 574.666 466.956 580 485L582 485L587 477L580 483L580 438C580 434.367 581.6 425.565 578.397 423.028C573.29 418.983 556.411 422 550 422L471 422L448 422C445.296 422.006 441.05 421.378 439.603 424.318C435.278 433.108 439 452.188 439 462L439 557L439 896z"/>
<path style="fill:#3f3f3f; stroke:none;" d="M656 422L657 423L656 422M795.667 422.333L796.333 422.667L795.667 422.333M200 896C195.683 885.813 198 871.93 198 861L198 789L198 536L198 454C198 447.74 194.983 430.224 199.603 425.603C202.029 423.178 206.899 424 210 424L236 424L341 424C332.165 420.293 317.585 423 308 423L232 423L207 423C204.393 423.001 200.034 422.261 198.179 424.603C194.796 428.874 197 440.77 197 446L197 504L197 731L197 853C197 863.231 192.501 888.657 200 896M440 423L440 424L579 424C568.02 419.393 548.944 423 537 423L440 423M654 423L655 424L654 423M798.667 423.333L799.333 423.667L798.667 423.333z"/>
<path style="fill:#010101; stroke:none;" d="M341 424L234 424L208 424C205.383 424.001 200.891 423.25 199.028 425.603C195.316 430.291 198 445.154 198 451L198 520L198 790L198 867C198 873.097 195.09 889.883 199.603 894.397C203.23 898.023 214.238 896 219 896L273 896L321 896C325.448 896 335.646 897.895 339.258 894.972C342.8 892.106 341 882.069 341 878L341 829L341 629L341 424z"/>
<path style="fill:#3f3f3f; stroke:none;" d="M652 424L653 425L652 424M800 424L801 425L800 424M341 425L341 893L342 893L342 562L342 466C342 454.318 345.507 435.742 341 425M651 425L652 426L651 425M802 425L803 426L802 425M648.667 426.333L649.333 426.667L648.667 426.333M804 426L805 427L804 426z"/>
<path style="fill:#696969; stroke:none;" d="M639 430L639 431L646 428L639 430z"/>
<path style="fill:#3f3f3f; stroke:none;" d="M807 427L807 429L809 429L807 427M645 428L646 429L645 428M642 429L643 430L642 429z"/>
<path style="fill:#696969; stroke:none;" d="M811 429L811 430C834.745 442.452 852.208 462.056 867 484L868 484C861.305 463.026 832 435.177 811 429z"/>
<path style="fill:#3f3f3f; stroke:none;" d="M641 430L642 431L641 430M811 430L812 431L811 430z"/>
<path style="fill:#696969; stroke:none;" d="M628 437L628 438L639 432L628 437z"/>
<path style="fill:#3f3f3f; stroke:none;" d="M814 431L815 432L814 431M638 432L639 433L638 432M815 432L816 433L815 432M636 433L637 434L636 433M817 433L818 434L817 433M634 434L635 435L634 434M818.667 434.333L819.333 434.667L818.667 434.333M820.667 435.333L821.333 435.667L820.667 435.333M631 436L632 437L631 436M822 436L823 437L822 436M630 437L631 438L630 437z"/>
<path style="fill:#696969; stroke:none;" d="M617 446L628 439L617 446z"/>
<path style="fill:#3f3f3f; stroke:none;" d="M825 438L826 439L825 438M627 439L628 440L627 439M625 440L626 441L625 440M827 440L828 441L827 440M624 441L625 442L624 441M828 441L829 442L828 441M622 442L623 443L622 442M830 442L831 443L830 442M619.667 444.333L620.333 444.667L619.667 444.333M833 445L834 446L833 445z"/>
<path style="fill:#696969; stroke:none;" d="M616 446C606.571 452.99 597.51 461.159 591 471C596.756 467.918 614.528 452.054 616 446z"/>
<path style="fill:#3f3f3f; stroke:none;" d="M835 446L836 447L835 446M616 447L617 448L616 447M836 447L837 448L836 447M837 448L838 449L837 448M613 449L614 450L613 449M840 450L841 451L840 450M611 451L612 452L611 451M610 452L611 453L610 452M608 454L609 455L608 454M843 454L844 455L843 454M845 456L846 457L845 456M604 457L605 458L604 457M847 458L848 459L847 458M602 459L603 460L602 459M600 461L601 462L600 461M851 462L852 463L851 462M598 463L599 464L598 463M852 463L853 464L852 463M595 467L596 468L595 467M855 467L856 468L855 467M594 468L595 469L594 468M856 468L857 469L856 468M857 469L858 470L857 469M591.667 471.333L592.333 471.667L591.667 471.333M858 471L859 472L858 471z"/>
<path style="fill:#696969; stroke:none;" d="M590 472L591 473L590 472z"/>
<path style="fill:#3f3f3f; stroke:none;" d="M859 472L860 473L859 472z"/>
<path style="fill:#696969; stroke:none;" d="M589 473L590 474L589 473z"/>
<path style="fill:#3f3f3f; stroke:none;" d="M860 473L861 474L860 473z"/>
<path style="fill:#696969; stroke:none;" d="M588 474L587 476L588 474z"/>
<path style="fill:#3f3f3f; stroke:none;" d="M588 475L589 476L588 475M861 475L862 476L861 475M587 476L588 477L587 476M862 477L863 478L862 477M863 478L864 479L863 478M585 480L586 481L585 480M864 480L865 481L864 480M584 481L585 482L584 481M583 482L584 483L583 482M866 483L867 484L866 483z"/>
<path style="fill:#696969; stroke:none;" d="M868 484L878 506L879 506C877.72 498.817 873.195 489.14 868 484z"/>
<path style="fill:#3f3f3f; stroke:none;" d="M868.333 486.667L868.667 487.333L868.333 486.667M870 490L871 491L870 490M871 492L872 493L871 492M872 494L873 495L872 494M873 496L874 497L873 496M874 498L875 499L874 498M875 500L876 501L875 500M876 502L877 503L876 502M877.333 504.667L877.667 505.333L877.333 504.667z"/>
<path style="fill:#696969; stroke:none;" d="M879 506L887 534L888 534C887.601 525.262 883.847 513.301 879 506z"/>
<path style="fill:#3f3f3f; stroke:none;" d="M879 510L880 511L879 510M880 511L881 512L880 511M881.333 515.667L881.667 516.333L881.333 515.667M882 517L883 518L882 517M883.333 521.667L883.667 522.333L883.333 521.667M884.333 523.667L884.667 524.333L884.333 523.667M885 526L885 529L886 529L885 526M886 531L887 532L886 531M887.333 534.667L887.667 535.333L887.333 534.667z"/>
<path style="fill:#696969; stroke:none;" d="M888 535L889 542L890 542L888 535z"/>
<path style="fill:#3f3f3f; stroke:none;" d="M662 539L662 540L676 540L662 539M654 540L654 541L657 541L654 540z"/>
<path style="fill:#696969; stroke:none;" d="M650 541L650 542L659 541L650 541z"/>
<path style="fill:#3f3f3f; stroke:none;" d="M659 540L660 541L659 540z"/>
<path style="fill:#696969; stroke:none;" d="M660 540L660 541L679 541L660 540z"/>
<path style="fill:#3f3f3f; stroke:none;" d="M679.667 540.333L680.333 540.667L679.667 540.333z"/>
<path style="fill:#696969; stroke:none;" d="M681 540L686 542L686 541L681 540z"/>
<path style="fill:#3f3f3f; stroke:none;" d="M682.667 540.333L683.333 540.667L682.667 540.333M888 540L889 541L888 540M648.667 541.333L649.333 541.667L648.667 541.333M686 541L686 542L689 542L686 541M645 542L646 543L645 542z"/>
<path style="fill:#696969; stroke:none;" d="M646 542L646 543L649 543L646 542M687 542L687 543L694 544L687 542z"/>
<path style="fill:#3f3f3f; stroke:none;" d="M691 542L692 543L691 542M889 542L889 545L890 545L889 542M640 543L640 544L643 544L640 543z"/>
<path style="fill:#696969; stroke:none;" d="M643 543L643 544L646 544L643 543z"/>
<path style="fill:#3f3f3f; stroke:none;" d="M694.667 543.333L695.333 543.667L694.667 543.333z"/>
<path style="fill:#696969; stroke:none;" d="M637 545L637 546L641 545L637 545M696 544L699 546L696 544M890 544L891 551L892 551L890 544z"/>
<path style="fill:#3f3f3f; stroke:none;" d="M636 545L637 546L636 545M699 545L700 546L699 545z"/>
<path style="fill:#696969; stroke:none;" d="M632 548L635 546L632 548M700 546L700 547L704 548L704 547L700 546z"/>
<path style="fill:#3f3f3f; stroke:none;" d="M631 547L632 548L631 547M704 547L705 548L704 547z"/>
<path style="fill:#696969; stroke:none;" d="M627 550L630 548L627 550M705 548L705 549L708 550L705 548z"/>
<path style="fill:#3f3f3f; stroke:none;" d="M707 548L708 549L707 548M708 549L709 550L708 549M890.333 549.667L890.667 550.333L890.333 549.667M624 550L625 551L624 550z"/>
<path style="fill:#696969; stroke:none;" d="M625.667 550.333L626.333 550.667L625.667 550.333M709 550L711 552L709 550z"/>
<path style="fill:#3f3f3f; stroke:none;" d="M710 550L711 551L710 550M620 553L623 552L620 553z"/>
<path style="fill:#696969; stroke:none;" d="M623.667 551.333L624.333 551.667L623.667 551.333z"/>
<path style="fill:#3f3f3f; stroke:none;" d="M711.667 551.333L712.333 551.667L711.667 551.333M891.333 551.667L891.667 552.333L891.333 551.667z"/>
<path style="fill:#696969; stroke:none;" d="M618 554L618 555L623 553L618 554M712 552L720 558L712 552z"/>
<path style="fill:#3f3f3f; stroke:none;" d="M715 553L716 554L715 553z"/>
<path style="fill:#696969; stroke:none;" d="M892 553L893 588L894 588C894 577.367 896.167 562.928 892 553z"/>
<path style="fill:#3f3f3f; stroke:none;" d="M716 554L717 555L716 554M616 555L617 556L616 555z"/>
<path style="fill:#696969; stroke:none;" d="M617 555L618 556L617 555M610 560L610 561L617 557L610 560z"/>
<path style="fill:#3f3f3f; stroke:none;" d="M719 556L720 557L719 556M613 557L614 558L613 557M612 558L613 559L612 558z"/>
<path style="fill:#696969; stroke:none;" d="M720 558L731 570L720 558z"/>
<path style="fill:#3f3f3f; stroke:none;" d="M721 558L722 559L721 558M610 559L611 560L610 559M723 560L724 561L723 560z"/>
<path style="fill:#696969; stroke:none;" d="M607 564L608 564L610 562L607 564z"/>
<path style="fill:#3f3f3f; stroke:none;" d="M724 561L725 562L724 561M608 562L609 563L608 562z"/>
<path style="fill:#696969; stroke:none;" d="M605 564L605 566L607 564L605 564z"/>
<path style="fill:#3f3f3f; stroke:none;" d="M728 565L729 566L728 565z"/>
<path style="fill:#696969; stroke:none;" d="M603 566L603 568L605 566L603 566z"/>
<path style="fill:#3f3f3f; stroke:none;" d="M729 566L730 567L729 566M730 567L731 568L730 567M601 568L602 569L601 568z"/>
<path style="fill:#696969; stroke:none;" d="M602 568L596 577L602 568M731 570L735 577L736 577L731 570z"/>
<path style="fill:#3f3f3f; stroke:none;" d="M732 570L733 571L732 570M599 571L600 572L599 571M598 572L599 573L598 572M733 572L734 573L733 572M892 572L892 580L893 580L892 572M734 573L735 574L734 573M597 574L598 575L597 574M735 575L736 576L735 575M594 577L595 578L594 577z"/>
<path style="fill:#696969; stroke:none;" d="M595 577L594 581L595 581L595 577z"/>
<path style="fill:#3f3f3f; stroke:none;" d="M736 577L738 579L736 577z"/>
<path style="fill:#696969; stroke:none;" d="M736 578L747.621 606L748 651L749 651C749 627.975 754.201 596.009 736 578z"/>
<path style="fill:#3f3f3f; stroke:none;" d="M738 580L739 581L738 580z"/>
<path style="fill:#696969; stroke:none;" d="M592 581L590 587L591 587L594 581L592 581z"/>
<path style="fill:#3f3f3f; stroke:none;" d="M739 582L740 583L739 582M591 583L592 584L591 583M590 584L591 585L590 584M740 584L741 585L740 584M741 586L742 587L741 586M589 587L588 589L589 587z"/>
<path style="fill:#696969; stroke:none;" d="M589 588L583 609L584 609L589 588z"/>
<path style="fill:#3f3f3f; stroke:none;" d="M742 588L743 589L742 588M893 588L893 604L894 604L893 588M743 590L744 591L743 590M587 591L588 592L587 591M744.333 592.667L744.667 593.333L744.333 592.667M586 593L587 594L586 593M745.333 594.667L745.667 595.333L745.333 594.667M585 596L586 597L585 596M746 597L747 598L746 597M584 599L585 600L584 599M583 601L584 602L583 601M747 601L748 602L747 601M748 602L749 603L748 602z"/>
<path style="fill:#696969; stroke:none;" d="M894 604L894 896L895 896L895 690L895 631L894 604z"/>
<path style="fill:#3f3f3f; stroke:none;" d="M749 607L749 701L750 701L750 636L749 607M582.333 608.667L582.667 609.333L582.333 608.667z"/>
<path style="fill:#696969; stroke:none;" d="M582 610L581 648L582 648L582 610z"/>
<path style="fill:#3f3f3f; stroke:none;" d="M581 611L581 615L582 615L581 611M580 641L580 651L581 651L580 641z"/>
<path style="fill:#696969; stroke:none;" d="M580 651L579 894L580 894L580.039 733L581 676L580 651z"/>
<path style="fill:#3f3f3f; stroke:none;" d="M579 673L579 691L580 691L579 673z"/>
<path style="fill:#696969; stroke:none;" d="M749 701C749 750.796 745.116 802.46 749.83 852C750.83 862.506 750 873.448 750 884C750 887.141 748.792 893.594 751.603 895.821C754.134 897.826 758.999 897 762 897L789 897L893 897L893 896L789 896L763 896C759.899 896 755.029 896.822 752.603 894.397C749.728 891.521 751 884.694 751 881L751 845C751 811.618 750 778.391 750 745C750 732.532 753.807 712.456 749 701z"/>
<path style="fill:#3f3f3f; stroke:none;" d="M750 750L750 799L751 799C751 785.212 755.309 762.652 750 750M1078 877L1078 899L1079 899L1078 877z"/>
<path style="fill:#696969; stroke:none;" d="M341 893L341 896L342 896L341 893M197 894L197 896L199 896L197 894z"/>
<path style="fill:#3f3f3f; stroke:none;" d="M340.333 894.667L340.667 895.333L340.333 894.667M578 894L577 896L578 894M751 894L752 895L751 894M440.667 895.333L441.333 895.667L440.667 895.333z"/>
<path style="fill:#696969; stroke:none;" d="M578 895L579 896L578 895z"/>
<path style="fill:#3f3f3f; stroke:none;" d="M752 895L753 896L752 895M893 895L894 896L893 895z"/>
<path style="fill:#696969; stroke:none;" d="M199 896L199 897L340 897C329.02 892.393 309.944 896 298 896L199 896M442 896L442 897L577 897C566.258 892.492 547.682 896 536 896L442 896z"/>
<path style="fill:#3f3f3f; stroke:none;" d="M1077 912L1077 916L1078 916L1077 912z"/>
<path style="fill:#696969; stroke:none;" d="M1076 913C1076 939.619 1075.96 964.013 1070 990L1071 990C1076.86 971.66 1077 954.057 1077 935C1077 928.314 1078.6 919.194 1076 913z"/>
<path style="fill:#3f3f3f; stroke:none;" d="M1076 965L1076 970L1077 970L1076 965M1075 972L1076 973L1075 972M1 974L2 975L1 974M2 975L3 976L2 975M1074.33 978.667L1074.67 979.333L1074.33 978.667M3.33333 979.667L3.66667 980.333L3.33333 979.667z"/>
<path style="fill:#696969; stroke:none;" d="M5 981L11 998L12 998L5 981z"/>
<path style="fill:#3f3f3f; stroke:none;" d="M1073 981L1074 982L1073 981M5.33333 984.667L5.66667 985.333L5.33333 984.667M1072.33 985.667L1072.67 986.333L1072.33 985.667M6 986L7 987L6 986M1071 988L1072 989L1071 988M7 989L8 990L7 989M1070.33 990.667L1070.67 991.333L1070.33 990.667M8 991L9 992L8 991z"/>
<path style="fill:#696969; stroke:none;" d="M1069 991L1068 995L1069 995L1069 991z"/>
<path style="fill:#3f3f3f; stroke:none;" d="M1069 993L1070 994L1069 993M9 994L10 995L9 994M1068 995L1069 996L1068 995M10 996L11 997L10 996z"/>
<path style="fill:#696969; stroke:none;" d="M1067 996L1064 1004L1065 1004L1067 996z"/>
<path style="fill:#3f3f3f; stroke:none;" d="M11 998L12 999L11 998M1067.33 998.667L1067.67 999.333L1067.33 998.667z"/>
<path style="fill:#696969; stroke:none;" d="M12 999L13 1003L14 1003L12 999z"/>
<path style="fill:#3f3f3f; stroke:none;" d="M1066 1000L1067 1001L1066 1000M12.3333 1001.67L12.6667 1002.33L12.3333 1001.67M1065 1003L1066 1004L1065 1003z"/>
<path style="fill:#696969; stroke:none;" d="M14 1004L16 1007L14 1004z"/>
<path style="fill:#3f3f3f; stroke:none;" d="M1064 1004L1065 1005L1064 1004z"/>
<path style="fill:#696969; stroke:none;" d="M1063 1005L1062 1009L1063 1009L1063 1005M16 1007L17 1011L18 1011L16 1007z"/>
<path style="fill:#3f3f3f; stroke:none;" d="M1063 1008L1064 1009L1063 1008z"/>
<path style="fill:#696969; stroke:none;" d="M1061 1009L1053 1023L1054 1023L1061 1009z"/>
<path style="fill:#3f3f3f; stroke:none;" d="M16 1010L17 1011L16 1010z"/>
<path style="fill:#696969; stroke:none;" d="M18 1011L21 1018L22 1018L18 1011z"/>
<path style="fill:#3f3f3f; stroke:none;" d="M1061 1011L1062 1012L1061 1011M1060 1012L1061 1013L1060 1012M18 1013L19 1014L18 1013M19 1014L20 1015L19 1014M1059 1014L1060 1015L1059 1014M20 1017L21 1018L20 1017z"/>
<path style="fill:#696969; stroke:none;" d="M22 1018L24 1023L25 1023L22 1018z"/>
<path style="fill:#3f3f3f; stroke:none;" d="M1056.33 1018.67L1056.67 1019.33L1056.33 1018.67M22 1020L23 1021L22 1020M1055 1020L1056 1021L1055 1020z"/>
<path style="fill:#696969; stroke:none;" d="M25 1023L28 1028L29 1028L25 1023M1052 1023L1049 1028L1050 1028L1052 1023z"/>
<path style="fill:#3f3f3f; stroke:none;" d="M25 1024L26 1025L25 1024M26 1025L27 1026L26 1025M1051 1025L1052 1026L1051 1025z"/>
<path style="fill:#696969; stroke:none;" d="M29 1028L29 1030L31 1030L29 1028M1048 1028L1042 1036L1048 1028z"/>
<path style="fill:#3f3f3f; stroke:none;" d="M1048 1029L1049 1030L1048 1029M30 1030L31 1031L30 1030M1047 1030L1048 1031L1047 1030z"/>
<path style="fill:#696969; stroke:none;" d="M31 1031L31 1033L33 1033L31 1031z"/>
<path style="fill:#3f3f3f; stroke:none;" d="M1046 1032L1047 1033L1046 1032z"/>
<path style="fill:#696969; stroke:none;" d="M33 1033L47 1047L33 1033z"/>
<path style="fill:#3f3f3f; stroke:none;" d="M1045 1033L1046 1034L1045 1033M33 1034L34 1035L33 1034M1044 1034L1045 1035L1044 1034M34 1035L35 1036L34 1035M1043 1035L1044 1036L1043 1035M35 1036L36 1037L35 1036z"/>
<path style="fill:#696969; stroke:none;" d="M1040 1036L1040 1038L1042 1036L1040 1036z"/>
<path style="fill:#3f3f3f; stroke:none;" d="M37 1038L38 1039L37 1038z"/>
<path style="fill:#696969; stroke:none;" d="M1038 1038L1038 1040L1040 1038L1038 1038z"/>
<path style="fill:#3f3f3f; stroke:none;" d="M38 1039L39 1040L38 1039M39 1040L40 1041L39 1040z"/>
<path style="fill:#696969; stroke:none;" d="M1036 1040L1036 1042L1038 1040L1036 1040z"/>
<path style="fill:#3f3f3f; stroke:none;" d="M40 1041L41 1042L40 1041M41 1042L42 1043L41 1042z"/>
<path style="fill:#696969; stroke:none;" d="M1034 1042L1026 1051L1036 1042L1034 1042z"/>
<path style="fill:#3f3f3f; stroke:none;" d="M1035 1043L1036 1044L1035 1043M43 1044L44 1045L43 1044M1034 1044L1035 1045L1034 1044M44 1045L45 1046L44 1045M1033 1045L1034 1046L1033 1045M45 1046L46 1047L45 1046M1032 1046L1033 1047L1032 1046z"/>
<path style="fill:#696969; stroke:none;" d="M47 1047L47 1048L52 1051L47 1047z"/>
<path style="fill:#3f3f3f; stroke:none;" d="M1030 1047L1031 1048L1030 1047M47 1048L48 1049L47 1048M49 1049L50 1050L49 1049M1028 1049L1029 1050L1028 1049M50 1050L51 1051L50 1050M1027 1050L1028 1051L1027 1050M52 1051L53 1052L52 1051z"/>
<path style="fill:#696969; stroke:none;" d="M53 1051L57 1055L53 1051M1007 1063L1007 1064L1026 1052L1007 1063z"/>
<path style="fill:#3f3f3f; stroke:none;" d="M54 1053L55 1054L54 1053M1023 1053L1024 1054L1023 1053M55 1054L56 1055L55 1054M1022 1054L1023 1055L1022 1054z"/>
<path style="fill:#696969; stroke:none;" d="M57 1055L57 1056L62 1058L62 1057L57 1055z"/>
<path style="fill:#3f3f3f; stroke:none;" d="M1021 1055L1022 1056L1021 1055M58 1056L59 1057L58 1056M59 1057L60 1058L59 1057M1018 1057L1019 1058L1018 1057z"/>
<path style="fill:#696969; stroke:none;" d="M62 1058L62 1059L66 1060L66 1059L62 1058z"/>
<path style="fill:#3f3f3f; stroke:none;" d="M1016 1058L1017 1059L1016 1058M63 1059L64 1060L63 1059z"/>
<path style="fill:#696969; stroke:none;" d="M66 1060L69 1062L69 1061L66 1060z"/>
<path style="fill:#3f3f3f; stroke:none;" d="M1013 1060L1014 1061L1013 1060M66 1061L67 1062L66 1061M1012 1061L1013 1062L1012 1061z"/>
<path style="fill:#696969; stroke:none;" d="M69 1062L69 1063L73 1064L73 1063L69 1062z"/>
<path style="fill:#3f3f3f; stroke:none;" d="M1010 1062L1011 1063L1010 1062M69 1063L70 1064L69 1063M1009 1063L1010 1064L1009 1063z"/>
<path style="fill:#696969; stroke:none;" d="M73 1064L73 1065L77 1066L77 1065L73 1064M1002 1065L1002 1066L1006 1065L1002 1065z"/>
<path style="fill:#3f3f3f; stroke:none;" d="M1006 1064L1007 1065L1006 1064M73 1065L74 1066L73 1065M1005 1065L1006 1066L1005 1065z"/>
<path style="fill:#696969; stroke:none;" d="M77 1066L77 1067C92.1288 1072.99 105.707 1077 122 1077L122 1076L77 1066M1000 1066L998 1067L998 1068L1000 1066z"/>
<path style="fill:#3f3f3f; stroke:none;" d="M1001.67 1066.33L1002.33 1066.67L1001.67 1066.33M1000 1067L1001 1068L1000 1067M81 1068L82 1069L81 1068z"/>
<path style="fill:#696969; stroke:none;" d="M991 1070L991 1071L997 1069L991 1070z"/>
<path style="fill:#3f3f3f; stroke:none;" d="M997 1068L998 1069L997 1068M83 1069L84 1070L83 1069M995 1069L996 1070L995 1069M86 1070L87 1071L86 1070M993 1070L994 1071L993 1070M88 1071L89 1072L88 1071z"/>
<path style="fill:#696969; stroke:none;" d="M123 1077L123 1078C317.56 1078 512.351 1079 707 1079L880 1079C916.373 1079 954.815 1081.98 990 1072L970 1075.82L922 1078L732 1078L123 1077z"/>
<path style="fill:#3f3f3f; stroke:none;" d="M990.667 1071.33L991.333 1071.67L990.667 1071.33M90.6667 1072.33L91.3333 1072.67L90.6667 1072.33M988 1072L989 1073L988 1072M95 1073L96 1074L95 1073M984 1073L985 1074L984 1073M97.6667 1074.33L98.3333 1074.67L97.6667 1074.33M981.667 1074.33L982.333 1074.67L981.667 1074.33M102 1075L103 1076L102 1075M976 1075L977 1076L976 1075M104 1076L105 1077L104 1076M974.667 1076.33L975.333 1076.67L974.667 1076.33M119 1077L119 1078L123 1078L119 1077M957 1077L957 1078L960 1078L957 1077M126 1078L126 1079L138 1079L126 1078M941 1078L941 1079L953 1079L941 1078z"/>
</svg>
